M48
;GenerationSoftware,Autodesk,EAGLE,9.6.2*%
;CreationDate,2025-03-04T22:57:25Z*%
FMAT,2
ICI,OFF
METRIC,TZ,000.000
T4C0.600
T3C0.813
T2C1.016
T1C1.300
%
G90
M71
T1
X12700Y76200
X7620Y6350
X10160Y6350
X12700Y6350
X5080Y6350
X10160Y76200
X7620Y76200
X5080Y76200
T2
X7620Y13970
X26670Y73660
X2540Y21590
X2540Y24130
X12700Y13970
X10160Y13970
X5080Y30480
X5080Y13970
X12700Y66040
X10160Y66040
X7620Y66040
X5080Y66040
X26670Y76200
X7620Y30480
X10160Y30480
X12700Y30480
T3
X22860Y55880
X15240Y55880
X15240Y69850
X22860Y69850
X20320Y25400
X27940Y25400
X27940Y30480
X20320Y30480
X7620Y50800
X7620Y58420
X5080Y24130
X12700Y24130
X24130Y48260
X3810Y50800
X24130Y50800
X8890Y19050
X11430Y19050
X22860Y63500
X3810Y48260
X22860Y66040
X24130Y36830
X21590Y36830
T4
X12700Y41910
X11430Y41910
X10160Y41910
M30