M48
;GenerationSoftware,Autodesk,EAGLE,9.6.2*%
;CreationDate,2025-03-21T06:50:05Z*%
FMAT,2
ICI,OFF
METRIC,TZ,000.000
T6C0.600
T5C0.813
T4C0.914
T3C1.016
T2C1.118
T1C1.300
%
G90
M71
T1
X30150Y23500
X17950Y23500
X17950Y11500
X43500Y6730
X43500Y11810
X30150Y11500
X43500Y9270
X32150Y17500
X43500Y4190
X10230Y48500
X12770Y48500
X15310Y48500
X7690Y48500
T2
X2420Y18000
X12580Y18000
T3
X20770Y7000
X18230Y7000
X14270Y7000
X11730Y7000
X28000Y42270
X54500Y4190
X52230Y22500
X54770Y22500
X54500Y11810
X54500Y9270
X4500Y42770
X4500Y45310
X4500Y40230
X4500Y37690
X54500Y6730
X20500Y42730
X20500Y45270
X28000Y44810
X28000Y37190
X28000Y39730
T4
X32040Y7000
X26960Y7000
X29500Y7000
T5
X12310Y34500
X11310Y13500
X20770Y34500
X3690Y10500
X11310Y10500
X47230Y19000
X49770Y19000
X54810Y14500
X47000Y44810
X47000Y37190
X47190Y14500
X53230Y44000
X55770Y44000
X49500Y44810
X49500Y37190
X55770Y39000
X53230Y39000
X42000Y44810
X42000Y37190
X37500Y39770
X37500Y37230
X44500Y37190
X44500Y44810
X3690Y13500
X18230Y34500
X4690Y34500
T6
X6230Y21460
X4960Y21460
X34960Y44960
X36230Y44960
X7500Y21460
X37500Y44960
M30