G04 EAGLE Gerber RS-274X export*
G75*
%MOMM*%
%FSLAX34Y34*%
%LPD*%
%INDimensiones*%
%IPPOS*%
%AMOC8*
5,1,8,0,0,1.08239X$1,22.5*%
G01*
%ADD10C,0.130000*%
%ADD11C,0.152400*%


D10*
X590000Y0D02*
X719500Y0D01*
X719500Y540000D02*
X590000Y540000D01*
X700000Y539350D02*
X700000Y650D01*
X696808Y26000D01*
X703192Y26000D01*
X700000Y650D01*
X698700Y26000D01*
X701300Y26000D02*
X700000Y650D01*
X697400Y26000D01*
X702600Y26000D02*
X700000Y650D01*
X696808Y514000D02*
X700000Y539350D01*
X696808Y514000D02*
X703192Y514000D01*
X700000Y539350D01*
X698700Y514000D01*
X701300Y514000D02*
X700000Y539350D01*
X697400Y514000D01*
X702600Y514000D02*
X700000Y539350D01*
D11*
X693493Y244271D02*
X693493Y238852D01*
X693493Y244271D02*
X693491Y244389D01*
X693485Y244507D01*
X693476Y244625D01*
X693462Y244742D01*
X693445Y244859D01*
X693424Y244976D01*
X693399Y245091D01*
X693370Y245206D01*
X693337Y245320D01*
X693301Y245432D01*
X693261Y245543D01*
X693218Y245653D01*
X693171Y245762D01*
X693121Y245869D01*
X693066Y245974D01*
X693009Y246077D01*
X692948Y246178D01*
X692884Y246278D01*
X692817Y246375D01*
X692747Y246470D01*
X692673Y246562D01*
X692597Y246653D01*
X692517Y246740D01*
X692435Y246825D01*
X692350Y246907D01*
X692263Y246987D01*
X692172Y247063D01*
X692080Y247137D01*
X691985Y247207D01*
X691888Y247274D01*
X691788Y247338D01*
X691687Y247399D01*
X691584Y247456D01*
X691479Y247511D01*
X691372Y247561D01*
X691263Y247608D01*
X691153Y247651D01*
X691042Y247691D01*
X690930Y247727D01*
X690816Y247760D01*
X690701Y247789D01*
X690586Y247814D01*
X690469Y247835D01*
X690352Y247852D01*
X690235Y247866D01*
X690117Y247875D01*
X689999Y247881D01*
X689881Y247883D01*
X688074Y247883D01*
X687956Y247881D01*
X687838Y247875D01*
X687720Y247866D01*
X687603Y247852D01*
X687486Y247835D01*
X687369Y247814D01*
X687254Y247789D01*
X687139Y247760D01*
X687025Y247727D01*
X686913Y247691D01*
X686802Y247651D01*
X686692Y247608D01*
X686583Y247561D01*
X686476Y247511D01*
X686371Y247456D01*
X686268Y247399D01*
X686167Y247338D01*
X686067Y247274D01*
X685970Y247207D01*
X685875Y247137D01*
X685783Y247063D01*
X685692Y246987D01*
X685605Y246907D01*
X685520Y246825D01*
X685438Y246740D01*
X685358Y246653D01*
X685282Y246562D01*
X685208Y246470D01*
X685138Y246375D01*
X685071Y246278D01*
X685007Y246178D01*
X684946Y246077D01*
X684889Y245974D01*
X684834Y245869D01*
X684784Y245762D01*
X684737Y245653D01*
X684694Y245543D01*
X684654Y245432D01*
X684618Y245320D01*
X684585Y245206D01*
X684556Y245091D01*
X684531Y244976D01*
X684510Y244859D01*
X684493Y244742D01*
X684479Y244625D01*
X684470Y244507D01*
X684464Y244389D01*
X684462Y244271D01*
X684462Y238852D01*
X677237Y238852D01*
X677237Y247883D01*
X677237Y258096D02*
X689881Y254483D01*
X689881Y263514D01*
X686268Y260805D02*
X693493Y260805D01*
X693493Y269489D02*
X692590Y269489D01*
X692590Y270392D01*
X693493Y270392D01*
X693493Y269489D01*
X685365Y276367D02*
X685045Y276371D01*
X684726Y276382D01*
X684406Y276401D01*
X684088Y276428D01*
X683770Y276462D01*
X683453Y276504D01*
X683137Y276554D01*
X682822Y276611D01*
X682509Y276675D01*
X682197Y276747D01*
X681887Y276826D01*
X681580Y276913D01*
X681274Y277007D01*
X680971Y277108D01*
X680670Y277217D01*
X680372Y277332D01*
X680076Y277455D01*
X679784Y277585D01*
X679495Y277722D01*
X679494Y277722D02*
X679386Y277761D01*
X679279Y277804D01*
X679174Y277850D01*
X679071Y277900D01*
X678969Y277954D01*
X678869Y278011D01*
X678771Y278072D01*
X678675Y278136D01*
X678582Y278203D01*
X678491Y278273D01*
X678402Y278347D01*
X678316Y278423D01*
X678233Y278503D01*
X678152Y278585D01*
X678074Y278670D01*
X678000Y278757D01*
X677928Y278848D01*
X677859Y278940D01*
X677794Y279035D01*
X677732Y279132D01*
X677673Y279231D01*
X677618Y279332D01*
X677567Y279435D01*
X677519Y279540D01*
X677474Y279646D01*
X677433Y279753D01*
X677396Y279862D01*
X677363Y279973D01*
X677334Y280084D01*
X677308Y280196D01*
X677286Y280309D01*
X677269Y280423D01*
X677255Y280537D01*
X677245Y280652D01*
X677239Y280767D01*
X677237Y280882D01*
X677239Y280997D01*
X677245Y281112D01*
X677255Y281227D01*
X677269Y281341D01*
X677286Y281455D01*
X677308Y281568D01*
X677334Y281680D01*
X677363Y281792D01*
X677396Y281902D01*
X677433Y282011D01*
X677474Y282119D01*
X677519Y282225D01*
X677567Y282330D01*
X677618Y282432D01*
X677674Y282534D01*
X677732Y282633D01*
X677794Y282730D01*
X677860Y282825D01*
X677928Y282917D01*
X678000Y283007D01*
X678074Y283095D01*
X678152Y283180D01*
X678233Y283262D01*
X678316Y283341D01*
X678402Y283418D01*
X678491Y283491D01*
X678582Y283562D01*
X678676Y283629D01*
X678771Y283693D01*
X678869Y283754D01*
X678969Y283811D01*
X679071Y283864D01*
X679175Y283915D01*
X679280Y283961D01*
X679387Y284004D01*
X679495Y284043D01*
X679784Y284180D01*
X680076Y284310D01*
X680372Y284433D01*
X680670Y284548D01*
X680971Y284657D01*
X681274Y284758D01*
X681580Y284852D01*
X681887Y284939D01*
X682197Y285018D01*
X682509Y285090D01*
X682822Y285154D01*
X683137Y285211D01*
X683453Y285261D01*
X683770Y285303D01*
X684088Y285337D01*
X684406Y285364D01*
X684726Y285383D01*
X685045Y285394D01*
X685365Y285398D01*
X685365Y276367D02*
X685685Y276371D01*
X686004Y276382D01*
X686324Y276401D01*
X686642Y276428D01*
X686960Y276462D01*
X687277Y276504D01*
X687593Y276554D01*
X687908Y276611D01*
X688221Y276675D01*
X688533Y276747D01*
X688843Y276826D01*
X689150Y276913D01*
X689456Y277007D01*
X689759Y277108D01*
X690060Y277217D01*
X690358Y277332D01*
X690654Y277455D01*
X690946Y277585D01*
X691235Y277722D01*
X691236Y277721D02*
X691344Y277760D01*
X691451Y277803D01*
X691556Y277849D01*
X691660Y277900D01*
X691762Y277953D01*
X691862Y278010D01*
X691960Y278071D01*
X692055Y278135D01*
X692149Y278202D01*
X692240Y278273D01*
X692329Y278346D01*
X692415Y278423D01*
X692498Y278502D01*
X692579Y278584D01*
X692657Y278669D01*
X692731Y278757D01*
X692803Y278847D01*
X692872Y278940D01*
X692937Y279034D01*
X692999Y279131D01*
X693057Y279231D01*
X693113Y279332D01*
X693164Y279434D01*
X693212Y279539D01*
X693257Y279645D01*
X693298Y279753D01*
X693335Y279862D01*
X693368Y279972D01*
X693397Y280084D01*
X693423Y280196D01*
X693445Y280309D01*
X693462Y280423D01*
X693476Y280537D01*
X693486Y280652D01*
X693492Y280767D01*
X693494Y280882D01*
X691235Y284043D02*
X690946Y284180D01*
X690654Y284310D01*
X690358Y284433D01*
X690060Y284548D01*
X689759Y284657D01*
X689456Y284758D01*
X689150Y284852D01*
X688843Y284939D01*
X688533Y285018D01*
X688221Y285090D01*
X687908Y285154D01*
X687593Y285211D01*
X687277Y285261D01*
X686960Y285303D01*
X686642Y285337D01*
X686324Y285364D01*
X686004Y285383D01*
X685685Y285394D01*
X685365Y285398D01*
X691235Y284043D02*
X691343Y284004D01*
X691450Y283961D01*
X691555Y283915D01*
X691659Y283864D01*
X691761Y283811D01*
X691861Y283754D01*
X691959Y283693D01*
X692054Y283629D01*
X692148Y283562D01*
X692239Y283491D01*
X692328Y283418D01*
X692414Y283341D01*
X692497Y283262D01*
X692578Y283180D01*
X692656Y283095D01*
X692730Y283007D01*
X692802Y282917D01*
X692871Y282824D01*
X692936Y282730D01*
X692998Y282633D01*
X693056Y282533D01*
X693112Y282432D01*
X693163Y282329D01*
X693211Y282225D01*
X693256Y282119D01*
X693297Y282011D01*
X693334Y281902D01*
X693367Y281792D01*
X693396Y281680D01*
X693422Y281568D01*
X693444Y281455D01*
X693461Y281341D01*
X693475Y281227D01*
X693485Y281112D01*
X693491Y280997D01*
X693493Y280882D01*
X689881Y277270D02*
X680849Y284495D01*
X685365Y291998D02*
X685045Y292002D01*
X684726Y292013D01*
X684406Y292032D01*
X684088Y292059D01*
X683770Y292093D01*
X683453Y292135D01*
X683137Y292185D01*
X682822Y292242D01*
X682509Y292306D01*
X682197Y292378D01*
X681887Y292457D01*
X681580Y292544D01*
X681274Y292638D01*
X680971Y292739D01*
X680670Y292848D01*
X680372Y292963D01*
X680076Y293086D01*
X679784Y293216D01*
X679495Y293353D01*
X679494Y293354D02*
X679386Y293393D01*
X679279Y293436D01*
X679174Y293482D01*
X679071Y293532D01*
X678969Y293586D01*
X678869Y293643D01*
X678771Y293704D01*
X678675Y293768D01*
X678582Y293835D01*
X678491Y293905D01*
X678402Y293979D01*
X678316Y294055D01*
X678233Y294135D01*
X678152Y294217D01*
X678074Y294302D01*
X678000Y294389D01*
X677928Y294480D01*
X677859Y294572D01*
X677794Y294667D01*
X677732Y294764D01*
X677673Y294863D01*
X677618Y294964D01*
X677567Y295067D01*
X677519Y295172D01*
X677474Y295278D01*
X677433Y295385D01*
X677396Y295494D01*
X677363Y295605D01*
X677334Y295716D01*
X677308Y295828D01*
X677286Y295941D01*
X677269Y296055D01*
X677255Y296169D01*
X677245Y296284D01*
X677239Y296399D01*
X677237Y296514D01*
X677239Y296629D01*
X677245Y296744D01*
X677255Y296859D01*
X677269Y296973D01*
X677286Y297087D01*
X677308Y297200D01*
X677334Y297312D01*
X677363Y297424D01*
X677396Y297534D01*
X677433Y297643D01*
X677474Y297751D01*
X677519Y297857D01*
X677567Y297962D01*
X677618Y298064D01*
X677674Y298166D01*
X677732Y298265D01*
X677794Y298362D01*
X677860Y298457D01*
X677928Y298549D01*
X678000Y298639D01*
X678074Y298727D01*
X678152Y298812D01*
X678233Y298894D01*
X678316Y298973D01*
X678402Y299050D01*
X678491Y299123D01*
X678582Y299194D01*
X678676Y299261D01*
X678771Y299325D01*
X678869Y299386D01*
X678969Y299443D01*
X679071Y299496D01*
X679175Y299547D01*
X679280Y299593D01*
X679387Y299636D01*
X679495Y299675D01*
X679495Y299674D02*
X679784Y299811D01*
X680076Y299941D01*
X680372Y300064D01*
X680670Y300179D01*
X680971Y300288D01*
X681274Y300389D01*
X681580Y300483D01*
X681887Y300570D01*
X682197Y300649D01*
X682509Y300721D01*
X682822Y300785D01*
X683137Y300842D01*
X683453Y300892D01*
X683770Y300934D01*
X684088Y300968D01*
X684406Y300995D01*
X684726Y301014D01*
X685045Y301025D01*
X685365Y301029D01*
X685365Y291998D02*
X685685Y292002D01*
X686004Y292013D01*
X686324Y292032D01*
X686642Y292059D01*
X686960Y292093D01*
X687277Y292135D01*
X687593Y292185D01*
X687908Y292242D01*
X688221Y292306D01*
X688533Y292378D01*
X688843Y292457D01*
X689150Y292544D01*
X689456Y292638D01*
X689759Y292739D01*
X690060Y292848D01*
X690358Y292963D01*
X690654Y293086D01*
X690946Y293216D01*
X691235Y293353D01*
X691236Y293353D02*
X691344Y293392D01*
X691451Y293435D01*
X691556Y293481D01*
X691660Y293532D01*
X691762Y293585D01*
X691862Y293642D01*
X691960Y293703D01*
X692055Y293767D01*
X692149Y293834D01*
X692240Y293905D01*
X692329Y293978D01*
X692415Y294055D01*
X692498Y294134D01*
X692579Y294216D01*
X692657Y294301D01*
X692731Y294389D01*
X692803Y294479D01*
X692872Y294572D01*
X692937Y294666D01*
X692999Y294763D01*
X693057Y294863D01*
X693113Y294964D01*
X693164Y295066D01*
X693212Y295171D01*
X693257Y295277D01*
X693298Y295385D01*
X693335Y295494D01*
X693368Y295604D01*
X693397Y295716D01*
X693423Y295828D01*
X693445Y295941D01*
X693462Y296055D01*
X693476Y296169D01*
X693486Y296284D01*
X693492Y296399D01*
X693494Y296514D01*
X691235Y299674D02*
X690946Y299811D01*
X690654Y299941D01*
X690358Y300064D01*
X690060Y300179D01*
X689759Y300288D01*
X689456Y300389D01*
X689150Y300483D01*
X688843Y300570D01*
X688533Y300649D01*
X688221Y300721D01*
X687908Y300785D01*
X687593Y300842D01*
X687277Y300892D01*
X686960Y300934D01*
X686642Y300968D01*
X686324Y300995D01*
X686004Y301014D01*
X685685Y301025D01*
X685365Y301029D01*
X691235Y299675D02*
X691343Y299636D01*
X691450Y299593D01*
X691555Y299547D01*
X691659Y299496D01*
X691761Y299443D01*
X691861Y299386D01*
X691959Y299325D01*
X692054Y299261D01*
X692148Y299194D01*
X692239Y299123D01*
X692328Y299050D01*
X692414Y298973D01*
X692497Y298894D01*
X692578Y298812D01*
X692656Y298727D01*
X692730Y298639D01*
X692802Y298549D01*
X692871Y298456D01*
X692936Y298362D01*
X692998Y298265D01*
X693056Y298165D01*
X693112Y298064D01*
X693163Y297961D01*
X693211Y297857D01*
X693256Y297751D01*
X693297Y297643D01*
X693334Y297534D01*
X693367Y297424D01*
X693396Y297312D01*
X693422Y297200D01*
X693444Y297087D01*
X693461Y296973D01*
X693475Y296859D01*
X693485Y296744D01*
X693491Y296629D01*
X693493Y296514D01*
X689881Y292901D02*
X680849Y300126D01*
D10*
X649500Y300000D02*
X380000Y300000D01*
X380000Y0D02*
X649500Y0D01*
X630000Y650D02*
X630000Y299350D01*
X626808Y274000D01*
X633192Y274000D01*
X630000Y299350D01*
X628700Y274000D01*
X631300Y274000D02*
X630000Y299350D01*
X627400Y274000D01*
X632600Y274000D02*
X630000Y299350D01*
X626808Y26000D02*
X630000Y650D01*
X626808Y26000D02*
X633192Y26000D01*
X630000Y650D01*
X628700Y26000D01*
X631300Y26000D02*
X630000Y650D01*
X627400Y26000D01*
X632600Y26000D02*
X630000Y650D01*
D11*
X623493Y118852D02*
X623493Y123368D01*
X623491Y123501D01*
X623485Y123633D01*
X623475Y123765D01*
X623462Y123897D01*
X623444Y124029D01*
X623423Y124159D01*
X623398Y124290D01*
X623369Y124419D01*
X623336Y124547D01*
X623300Y124675D01*
X623260Y124801D01*
X623216Y124926D01*
X623168Y125050D01*
X623117Y125172D01*
X623062Y125293D01*
X623004Y125412D01*
X622942Y125530D01*
X622877Y125645D01*
X622808Y125759D01*
X622737Y125870D01*
X622661Y125979D01*
X622583Y126086D01*
X622502Y126191D01*
X622417Y126293D01*
X622330Y126393D01*
X622240Y126490D01*
X622147Y126585D01*
X622051Y126676D01*
X621953Y126765D01*
X621852Y126851D01*
X621748Y126934D01*
X621642Y127014D01*
X621534Y127090D01*
X621424Y127164D01*
X621311Y127234D01*
X621197Y127301D01*
X621080Y127364D01*
X620962Y127424D01*
X620842Y127481D01*
X620720Y127534D01*
X620597Y127583D01*
X620473Y127629D01*
X620347Y127671D01*
X620220Y127709D01*
X620092Y127744D01*
X619963Y127775D01*
X619834Y127802D01*
X619703Y127825D01*
X619572Y127845D01*
X619440Y127860D01*
X619308Y127872D01*
X619176Y127880D01*
X619043Y127884D01*
X618911Y127884D01*
X618778Y127880D01*
X618646Y127872D01*
X618514Y127860D01*
X618382Y127845D01*
X618251Y127825D01*
X618120Y127802D01*
X617991Y127775D01*
X617862Y127744D01*
X617734Y127709D01*
X617607Y127671D01*
X617481Y127629D01*
X617357Y127583D01*
X617234Y127534D01*
X617112Y127481D01*
X616992Y127424D01*
X616874Y127364D01*
X616757Y127301D01*
X616643Y127234D01*
X616530Y127164D01*
X616420Y127090D01*
X616312Y127014D01*
X616206Y126934D01*
X616102Y126851D01*
X616001Y126765D01*
X615903Y126676D01*
X615807Y126585D01*
X615714Y126490D01*
X615624Y126393D01*
X615537Y126293D01*
X615452Y126191D01*
X615371Y126086D01*
X615293Y125979D01*
X615217Y125870D01*
X615146Y125759D01*
X615077Y125645D01*
X615012Y125530D01*
X614950Y125412D01*
X614892Y125293D01*
X614837Y125172D01*
X614786Y125050D01*
X614738Y124926D01*
X614694Y124801D01*
X614654Y124675D01*
X614618Y124547D01*
X614585Y124419D01*
X614556Y124290D01*
X614531Y124159D01*
X614510Y124029D01*
X614492Y123897D01*
X614479Y123765D01*
X614469Y123633D01*
X614463Y123501D01*
X614461Y123368D01*
X607237Y124271D02*
X607237Y118852D01*
X607237Y124271D02*
X607239Y124390D01*
X607245Y124510D01*
X607255Y124629D01*
X607269Y124747D01*
X607286Y124866D01*
X607308Y124983D01*
X607333Y125100D01*
X607363Y125215D01*
X607396Y125330D01*
X607433Y125444D01*
X607473Y125556D01*
X607518Y125667D01*
X607566Y125776D01*
X607617Y125884D01*
X607672Y125990D01*
X607731Y126094D01*
X607793Y126196D01*
X607858Y126296D01*
X607927Y126394D01*
X607999Y126490D01*
X608074Y126583D01*
X608151Y126673D01*
X608232Y126761D01*
X608316Y126846D01*
X608403Y126928D01*
X608492Y127008D01*
X608584Y127084D01*
X608678Y127158D01*
X608775Y127228D01*
X608873Y127295D01*
X608974Y127359D01*
X609078Y127419D01*
X609183Y127476D01*
X609290Y127529D01*
X609398Y127579D01*
X609508Y127625D01*
X609620Y127667D01*
X609733Y127706D01*
X609847Y127741D01*
X609962Y127772D01*
X610079Y127800D01*
X610196Y127823D01*
X610313Y127843D01*
X610432Y127859D01*
X610551Y127871D01*
X610670Y127879D01*
X610789Y127883D01*
X610909Y127883D01*
X611028Y127879D01*
X611147Y127871D01*
X611266Y127859D01*
X611385Y127843D01*
X611502Y127823D01*
X611619Y127800D01*
X611736Y127772D01*
X611851Y127741D01*
X611965Y127706D01*
X612078Y127667D01*
X612190Y127625D01*
X612300Y127579D01*
X612408Y127529D01*
X612515Y127476D01*
X612620Y127419D01*
X612724Y127359D01*
X612825Y127295D01*
X612923Y127228D01*
X613020Y127158D01*
X613114Y127084D01*
X613206Y127008D01*
X613295Y126928D01*
X613382Y126846D01*
X613466Y126761D01*
X613547Y126673D01*
X613624Y126583D01*
X613699Y126490D01*
X613771Y126394D01*
X613840Y126296D01*
X613905Y126196D01*
X613967Y126094D01*
X614026Y125990D01*
X614081Y125884D01*
X614132Y125776D01*
X614180Y125667D01*
X614225Y125556D01*
X614265Y125444D01*
X614302Y125330D01*
X614335Y125215D01*
X614365Y125100D01*
X614390Y124983D01*
X614412Y124866D01*
X614429Y124747D01*
X614443Y124629D01*
X614453Y124510D01*
X614459Y124390D01*
X614461Y124271D01*
X614462Y124271D02*
X614462Y120658D01*
X615365Y134484D02*
X615045Y134488D01*
X614726Y134499D01*
X614406Y134518D01*
X614088Y134545D01*
X613770Y134579D01*
X613453Y134621D01*
X613137Y134671D01*
X612822Y134728D01*
X612509Y134792D01*
X612197Y134864D01*
X611887Y134943D01*
X611580Y135030D01*
X611274Y135124D01*
X610971Y135225D01*
X610670Y135334D01*
X610372Y135449D01*
X610076Y135572D01*
X609784Y135702D01*
X609495Y135839D01*
X609494Y135839D02*
X609386Y135878D01*
X609279Y135921D01*
X609174Y135967D01*
X609071Y136017D01*
X608969Y136071D01*
X608869Y136128D01*
X608771Y136189D01*
X608675Y136253D01*
X608582Y136320D01*
X608491Y136390D01*
X608402Y136464D01*
X608316Y136540D01*
X608233Y136620D01*
X608152Y136702D01*
X608074Y136787D01*
X608000Y136874D01*
X607928Y136965D01*
X607859Y137057D01*
X607794Y137152D01*
X607732Y137249D01*
X607673Y137348D01*
X607618Y137449D01*
X607567Y137552D01*
X607519Y137657D01*
X607474Y137763D01*
X607433Y137870D01*
X607396Y137979D01*
X607363Y138090D01*
X607334Y138201D01*
X607308Y138313D01*
X607286Y138426D01*
X607269Y138540D01*
X607255Y138654D01*
X607245Y138769D01*
X607239Y138884D01*
X607237Y138999D01*
X607239Y139114D01*
X607245Y139229D01*
X607255Y139344D01*
X607269Y139458D01*
X607286Y139572D01*
X607308Y139685D01*
X607334Y139797D01*
X607363Y139909D01*
X607396Y140019D01*
X607433Y140128D01*
X607474Y140236D01*
X607519Y140342D01*
X607567Y140447D01*
X607618Y140549D01*
X607674Y140651D01*
X607732Y140750D01*
X607794Y140847D01*
X607860Y140942D01*
X607928Y141034D01*
X608000Y141124D01*
X608074Y141212D01*
X608152Y141297D01*
X608233Y141379D01*
X608316Y141458D01*
X608402Y141535D01*
X608491Y141608D01*
X608582Y141679D01*
X608676Y141746D01*
X608771Y141810D01*
X608869Y141871D01*
X608969Y141928D01*
X609071Y141981D01*
X609175Y142032D01*
X609280Y142078D01*
X609387Y142121D01*
X609495Y142160D01*
X609495Y142159D02*
X609784Y142296D01*
X610076Y142426D01*
X610372Y142549D01*
X610670Y142664D01*
X610971Y142773D01*
X611274Y142874D01*
X611580Y142968D01*
X611887Y143055D01*
X612197Y143134D01*
X612509Y143206D01*
X612822Y143270D01*
X613137Y143327D01*
X613453Y143377D01*
X613770Y143419D01*
X614088Y143453D01*
X614406Y143480D01*
X614726Y143499D01*
X615045Y143510D01*
X615365Y143514D01*
X615365Y134484D02*
X615685Y134488D01*
X616004Y134499D01*
X616324Y134518D01*
X616642Y134545D01*
X616960Y134579D01*
X617277Y134621D01*
X617593Y134671D01*
X617908Y134728D01*
X618221Y134792D01*
X618533Y134864D01*
X618843Y134943D01*
X619150Y135030D01*
X619456Y135124D01*
X619759Y135225D01*
X620060Y135334D01*
X620358Y135449D01*
X620654Y135572D01*
X620946Y135702D01*
X621235Y135839D01*
X621236Y135838D02*
X621344Y135877D01*
X621451Y135920D01*
X621556Y135966D01*
X621660Y136017D01*
X621762Y136070D01*
X621862Y136127D01*
X621960Y136188D01*
X622055Y136252D01*
X622149Y136319D01*
X622240Y136390D01*
X622329Y136463D01*
X622415Y136540D01*
X622498Y136619D01*
X622579Y136701D01*
X622657Y136786D01*
X622731Y136874D01*
X622803Y136964D01*
X622872Y137057D01*
X622937Y137151D01*
X622999Y137248D01*
X623057Y137348D01*
X623113Y137449D01*
X623164Y137551D01*
X623212Y137656D01*
X623257Y137762D01*
X623298Y137870D01*
X623335Y137979D01*
X623368Y138089D01*
X623397Y138201D01*
X623423Y138313D01*
X623445Y138426D01*
X623462Y138540D01*
X623476Y138654D01*
X623486Y138769D01*
X623492Y138884D01*
X623494Y138999D01*
X621235Y142159D02*
X620946Y142296D01*
X620654Y142426D01*
X620358Y142549D01*
X620060Y142664D01*
X619759Y142773D01*
X619456Y142874D01*
X619150Y142968D01*
X618843Y143055D01*
X618533Y143134D01*
X618221Y143206D01*
X617908Y143270D01*
X617593Y143327D01*
X617277Y143377D01*
X616960Y143419D01*
X616642Y143453D01*
X616324Y143480D01*
X616004Y143499D01*
X615685Y143510D01*
X615365Y143514D01*
X621235Y142160D02*
X621343Y142121D01*
X621450Y142078D01*
X621555Y142032D01*
X621659Y141981D01*
X621761Y141928D01*
X621861Y141871D01*
X621959Y141810D01*
X622054Y141746D01*
X622148Y141679D01*
X622239Y141608D01*
X622328Y141535D01*
X622414Y141458D01*
X622497Y141379D01*
X622578Y141297D01*
X622656Y141212D01*
X622730Y141124D01*
X622802Y141034D01*
X622871Y140941D01*
X622936Y140847D01*
X622998Y140750D01*
X623056Y140650D01*
X623112Y140549D01*
X623163Y140446D01*
X623211Y140342D01*
X623256Y140236D01*
X623297Y140128D01*
X623334Y140019D01*
X623367Y139909D01*
X623396Y139797D01*
X623422Y139685D01*
X623444Y139572D01*
X623461Y139458D01*
X623475Y139344D01*
X623485Y139229D01*
X623491Y139114D01*
X623493Y138999D01*
X619881Y135386D02*
X610849Y142611D01*
X622590Y149489D02*
X623493Y149489D01*
X622590Y149489D02*
X622590Y150392D01*
X623493Y150392D01*
X623493Y149489D01*
X615365Y156367D02*
X615045Y156371D01*
X614726Y156382D01*
X614406Y156401D01*
X614088Y156428D01*
X613770Y156462D01*
X613453Y156504D01*
X613137Y156554D01*
X612822Y156611D01*
X612509Y156675D01*
X612197Y156747D01*
X611887Y156826D01*
X611580Y156913D01*
X611274Y157007D01*
X610971Y157108D01*
X610670Y157217D01*
X610372Y157332D01*
X610076Y157455D01*
X609784Y157585D01*
X609495Y157722D01*
X609494Y157722D02*
X609386Y157761D01*
X609279Y157804D01*
X609174Y157850D01*
X609071Y157900D01*
X608969Y157954D01*
X608869Y158011D01*
X608771Y158072D01*
X608675Y158136D01*
X608582Y158203D01*
X608491Y158273D01*
X608402Y158347D01*
X608316Y158423D01*
X608233Y158503D01*
X608152Y158585D01*
X608074Y158670D01*
X608000Y158757D01*
X607928Y158848D01*
X607859Y158940D01*
X607794Y159035D01*
X607732Y159132D01*
X607673Y159231D01*
X607618Y159332D01*
X607567Y159435D01*
X607519Y159540D01*
X607474Y159646D01*
X607433Y159753D01*
X607396Y159862D01*
X607363Y159973D01*
X607334Y160084D01*
X607308Y160196D01*
X607286Y160309D01*
X607269Y160423D01*
X607255Y160537D01*
X607245Y160652D01*
X607239Y160767D01*
X607237Y160882D01*
X607239Y160997D01*
X607245Y161112D01*
X607255Y161227D01*
X607269Y161341D01*
X607286Y161455D01*
X607308Y161568D01*
X607334Y161680D01*
X607363Y161792D01*
X607396Y161902D01*
X607433Y162011D01*
X607474Y162119D01*
X607519Y162225D01*
X607567Y162330D01*
X607618Y162432D01*
X607674Y162534D01*
X607732Y162633D01*
X607794Y162730D01*
X607860Y162825D01*
X607928Y162917D01*
X608000Y163007D01*
X608074Y163095D01*
X608152Y163180D01*
X608233Y163262D01*
X608316Y163341D01*
X608402Y163418D01*
X608491Y163491D01*
X608582Y163562D01*
X608676Y163629D01*
X608771Y163693D01*
X608869Y163754D01*
X608969Y163811D01*
X609071Y163864D01*
X609175Y163915D01*
X609280Y163961D01*
X609387Y164004D01*
X609495Y164043D01*
X609784Y164180D01*
X610076Y164310D01*
X610372Y164433D01*
X610670Y164548D01*
X610971Y164657D01*
X611274Y164758D01*
X611580Y164852D01*
X611887Y164939D01*
X612197Y165018D01*
X612509Y165090D01*
X612822Y165154D01*
X613137Y165211D01*
X613453Y165261D01*
X613770Y165303D01*
X614088Y165337D01*
X614406Y165364D01*
X614726Y165383D01*
X615045Y165394D01*
X615365Y165398D01*
X615365Y156367D02*
X615685Y156371D01*
X616004Y156382D01*
X616324Y156401D01*
X616642Y156428D01*
X616960Y156462D01*
X617277Y156504D01*
X617593Y156554D01*
X617908Y156611D01*
X618221Y156675D01*
X618533Y156747D01*
X618843Y156826D01*
X619150Y156913D01*
X619456Y157007D01*
X619759Y157108D01*
X620060Y157217D01*
X620358Y157332D01*
X620654Y157455D01*
X620946Y157585D01*
X621235Y157722D01*
X621236Y157721D02*
X621344Y157760D01*
X621451Y157803D01*
X621556Y157849D01*
X621660Y157900D01*
X621762Y157953D01*
X621862Y158010D01*
X621960Y158071D01*
X622055Y158135D01*
X622149Y158202D01*
X622240Y158273D01*
X622329Y158346D01*
X622415Y158423D01*
X622498Y158502D01*
X622579Y158584D01*
X622657Y158669D01*
X622731Y158757D01*
X622803Y158847D01*
X622872Y158940D01*
X622937Y159034D01*
X622999Y159131D01*
X623057Y159231D01*
X623113Y159332D01*
X623164Y159434D01*
X623212Y159539D01*
X623257Y159645D01*
X623298Y159753D01*
X623335Y159862D01*
X623368Y159972D01*
X623397Y160084D01*
X623423Y160196D01*
X623445Y160309D01*
X623462Y160423D01*
X623476Y160537D01*
X623486Y160652D01*
X623492Y160767D01*
X623494Y160882D01*
X621235Y164043D02*
X620946Y164180D01*
X620654Y164310D01*
X620358Y164433D01*
X620060Y164548D01*
X619759Y164657D01*
X619456Y164758D01*
X619150Y164852D01*
X618843Y164939D01*
X618533Y165018D01*
X618221Y165090D01*
X617908Y165154D01*
X617593Y165211D01*
X617277Y165261D01*
X616960Y165303D01*
X616642Y165337D01*
X616324Y165364D01*
X616004Y165383D01*
X615685Y165394D01*
X615365Y165398D01*
X621235Y164043D02*
X621343Y164004D01*
X621450Y163961D01*
X621555Y163915D01*
X621659Y163864D01*
X621761Y163811D01*
X621861Y163754D01*
X621959Y163693D01*
X622054Y163629D01*
X622148Y163562D01*
X622239Y163491D01*
X622328Y163418D01*
X622414Y163341D01*
X622497Y163262D01*
X622578Y163180D01*
X622656Y163095D01*
X622730Y163007D01*
X622802Y162917D01*
X622871Y162824D01*
X622936Y162730D01*
X622998Y162633D01*
X623056Y162533D01*
X623112Y162432D01*
X623163Y162329D01*
X623211Y162225D01*
X623256Y162119D01*
X623297Y162011D01*
X623334Y161902D01*
X623367Y161792D01*
X623396Y161680D01*
X623422Y161568D01*
X623444Y161455D01*
X623461Y161341D01*
X623475Y161227D01*
X623485Y161112D01*
X623491Y160997D01*
X623493Y160882D01*
X619881Y157270D02*
X610849Y164495D01*
X615365Y171998D02*
X615045Y172002D01*
X614726Y172013D01*
X614406Y172032D01*
X614088Y172059D01*
X613770Y172093D01*
X613453Y172135D01*
X613137Y172185D01*
X612822Y172242D01*
X612509Y172306D01*
X612197Y172378D01*
X611887Y172457D01*
X611580Y172544D01*
X611274Y172638D01*
X610971Y172739D01*
X610670Y172848D01*
X610372Y172963D01*
X610076Y173086D01*
X609784Y173216D01*
X609495Y173353D01*
X609494Y173354D02*
X609386Y173393D01*
X609279Y173436D01*
X609174Y173482D01*
X609071Y173532D01*
X608969Y173586D01*
X608869Y173643D01*
X608771Y173704D01*
X608675Y173768D01*
X608582Y173835D01*
X608491Y173905D01*
X608402Y173979D01*
X608316Y174055D01*
X608233Y174135D01*
X608152Y174217D01*
X608074Y174302D01*
X608000Y174389D01*
X607928Y174480D01*
X607859Y174572D01*
X607794Y174667D01*
X607732Y174764D01*
X607673Y174863D01*
X607618Y174964D01*
X607567Y175067D01*
X607519Y175172D01*
X607474Y175278D01*
X607433Y175385D01*
X607396Y175494D01*
X607363Y175605D01*
X607334Y175716D01*
X607308Y175828D01*
X607286Y175941D01*
X607269Y176055D01*
X607255Y176169D01*
X607245Y176284D01*
X607239Y176399D01*
X607237Y176514D01*
X607239Y176629D01*
X607245Y176744D01*
X607255Y176859D01*
X607269Y176973D01*
X607286Y177087D01*
X607308Y177200D01*
X607334Y177312D01*
X607363Y177424D01*
X607396Y177534D01*
X607433Y177643D01*
X607474Y177751D01*
X607519Y177857D01*
X607567Y177962D01*
X607618Y178064D01*
X607674Y178166D01*
X607732Y178265D01*
X607794Y178362D01*
X607860Y178457D01*
X607928Y178549D01*
X608000Y178639D01*
X608074Y178727D01*
X608152Y178812D01*
X608233Y178894D01*
X608316Y178973D01*
X608402Y179050D01*
X608491Y179123D01*
X608582Y179194D01*
X608676Y179261D01*
X608771Y179325D01*
X608869Y179386D01*
X608969Y179443D01*
X609071Y179496D01*
X609175Y179547D01*
X609280Y179593D01*
X609387Y179636D01*
X609495Y179675D01*
X609495Y179674D02*
X609784Y179811D01*
X610076Y179941D01*
X610372Y180064D01*
X610670Y180179D01*
X610971Y180288D01*
X611274Y180389D01*
X611580Y180483D01*
X611887Y180570D01*
X612197Y180649D01*
X612509Y180721D01*
X612822Y180785D01*
X613137Y180842D01*
X613453Y180892D01*
X613770Y180934D01*
X614088Y180968D01*
X614406Y180995D01*
X614726Y181014D01*
X615045Y181025D01*
X615365Y181029D01*
X615365Y171998D02*
X615685Y172002D01*
X616004Y172013D01*
X616324Y172032D01*
X616642Y172059D01*
X616960Y172093D01*
X617277Y172135D01*
X617593Y172185D01*
X617908Y172242D01*
X618221Y172306D01*
X618533Y172378D01*
X618843Y172457D01*
X619150Y172544D01*
X619456Y172638D01*
X619759Y172739D01*
X620060Y172848D01*
X620358Y172963D01*
X620654Y173086D01*
X620946Y173216D01*
X621235Y173353D01*
X621236Y173353D02*
X621344Y173392D01*
X621451Y173435D01*
X621556Y173481D01*
X621660Y173532D01*
X621762Y173585D01*
X621862Y173642D01*
X621960Y173703D01*
X622055Y173767D01*
X622149Y173834D01*
X622240Y173905D01*
X622329Y173978D01*
X622415Y174055D01*
X622498Y174134D01*
X622579Y174216D01*
X622657Y174301D01*
X622731Y174389D01*
X622803Y174479D01*
X622872Y174572D01*
X622937Y174666D01*
X622999Y174763D01*
X623057Y174863D01*
X623113Y174964D01*
X623164Y175066D01*
X623212Y175171D01*
X623257Y175277D01*
X623298Y175385D01*
X623335Y175494D01*
X623368Y175604D01*
X623397Y175716D01*
X623423Y175828D01*
X623445Y175941D01*
X623462Y176055D01*
X623476Y176169D01*
X623486Y176284D01*
X623492Y176399D01*
X623494Y176514D01*
X621235Y179674D02*
X620946Y179811D01*
X620654Y179941D01*
X620358Y180064D01*
X620060Y180179D01*
X619759Y180288D01*
X619456Y180389D01*
X619150Y180483D01*
X618843Y180570D01*
X618533Y180649D01*
X618221Y180721D01*
X617908Y180785D01*
X617593Y180842D01*
X617277Y180892D01*
X616960Y180934D01*
X616642Y180968D01*
X616324Y180995D01*
X616004Y181014D01*
X615685Y181025D01*
X615365Y181029D01*
X621235Y179675D02*
X621343Y179636D01*
X621450Y179593D01*
X621555Y179547D01*
X621659Y179496D01*
X621761Y179443D01*
X621861Y179386D01*
X621959Y179325D01*
X622054Y179261D01*
X622148Y179194D01*
X622239Y179123D01*
X622328Y179050D01*
X622414Y178973D01*
X622497Y178894D01*
X622578Y178812D01*
X622656Y178727D01*
X622730Y178639D01*
X622802Y178549D01*
X622871Y178456D01*
X622936Y178362D01*
X622998Y178265D01*
X623056Y178165D01*
X623112Y178064D01*
X623163Y177961D01*
X623211Y177857D01*
X623256Y177751D01*
X623297Y177643D01*
X623334Y177534D01*
X623367Y177424D01*
X623396Y177312D01*
X623422Y177200D01*
X623444Y177087D01*
X623461Y176973D01*
X623475Y176859D01*
X623485Y176744D01*
X623491Y176629D01*
X623493Y176514D01*
X619881Y172901D02*
X610849Y180126D01*
D10*
X649500Y540000D02*
X240000Y540000D01*
X240000Y300000D02*
X649500Y300000D01*
X630000Y300650D02*
X630000Y539350D01*
X626808Y514000D01*
X633192Y514000D01*
X630000Y539350D01*
X628700Y514000D01*
X631300Y514000D02*
X630000Y539350D01*
X627400Y514000D01*
X632600Y514000D02*
X630000Y539350D01*
X626808Y326000D02*
X630000Y300650D01*
X626808Y326000D02*
X633192Y326000D01*
X630000Y300650D01*
X628700Y326000D01*
X631300Y326000D02*
X630000Y300650D01*
X627400Y326000D01*
X632600Y326000D02*
X630000Y300650D01*
D11*
X607237Y393819D02*
X607239Y393944D01*
X607245Y394069D01*
X607254Y394194D01*
X607268Y394318D01*
X607285Y394442D01*
X607306Y394566D01*
X607331Y394688D01*
X607360Y394810D01*
X607392Y394931D01*
X607428Y395051D01*
X607468Y395170D01*
X607511Y395287D01*
X607558Y395403D01*
X607609Y395518D01*
X607663Y395630D01*
X607721Y395742D01*
X607781Y395851D01*
X607846Y395958D01*
X607913Y396064D01*
X607984Y396167D01*
X608058Y396268D01*
X608135Y396367D01*
X608215Y396463D01*
X608298Y396557D01*
X608383Y396648D01*
X608472Y396737D01*
X608563Y396822D01*
X608657Y396905D01*
X608753Y396985D01*
X608852Y397062D01*
X608953Y397136D01*
X609056Y397207D01*
X609162Y397274D01*
X609269Y397339D01*
X609378Y397399D01*
X609490Y397457D01*
X609602Y397511D01*
X609717Y397562D01*
X609833Y397609D01*
X609950Y397652D01*
X610069Y397692D01*
X610189Y397728D01*
X610310Y397760D01*
X610432Y397789D01*
X610554Y397814D01*
X610678Y397835D01*
X610802Y397852D01*
X610926Y397866D01*
X611051Y397875D01*
X611176Y397881D01*
X611301Y397883D01*
X607237Y393819D02*
X607239Y393676D01*
X607245Y393534D01*
X607255Y393391D01*
X607268Y393249D01*
X607286Y393108D01*
X607307Y392966D01*
X607332Y392826D01*
X607361Y392686D01*
X607394Y392547D01*
X607431Y392409D01*
X607471Y392272D01*
X607515Y392137D01*
X607563Y392002D01*
X607615Y391869D01*
X607670Y391737D01*
X607729Y391607D01*
X607791Y391479D01*
X607857Y391352D01*
X607926Y391227D01*
X607998Y391104D01*
X608074Y390983D01*
X608153Y390865D01*
X608236Y390748D01*
X608321Y390634D01*
X608410Y390522D01*
X608501Y390413D01*
X608596Y390306D01*
X608693Y390201D01*
X608794Y390100D01*
X608897Y390001D01*
X609002Y389905D01*
X609111Y389812D01*
X609222Y389722D01*
X609335Y389635D01*
X609450Y389551D01*
X609568Y389471D01*
X609688Y389393D01*
X609810Y389319D01*
X609934Y389249D01*
X610060Y389181D01*
X610188Y389118D01*
X610317Y389057D01*
X610448Y389000D01*
X610580Y388947D01*
X610714Y388898D01*
X610849Y388852D01*
X614462Y396528D02*
X614370Y396622D01*
X614276Y396712D01*
X614179Y396800D01*
X614079Y396885D01*
X613977Y396967D01*
X613872Y397045D01*
X613765Y397121D01*
X613656Y397193D01*
X613545Y397262D01*
X613431Y397328D01*
X613316Y397390D01*
X613199Y397449D01*
X613080Y397504D01*
X612960Y397555D01*
X612838Y397603D01*
X612715Y397648D01*
X612591Y397688D01*
X612465Y397725D01*
X612338Y397758D01*
X612211Y397787D01*
X612082Y397813D01*
X611953Y397834D01*
X611823Y397852D01*
X611693Y397865D01*
X611563Y397875D01*
X611432Y397881D01*
X611301Y397883D01*
X614462Y396528D02*
X623493Y388852D01*
X623493Y397883D01*
X619881Y404483D02*
X607237Y408096D01*
X619881Y404483D02*
X619881Y413514D01*
X616268Y410805D02*
X623493Y410805D01*
X623493Y419489D02*
X622590Y419489D01*
X622590Y420392D01*
X623493Y420392D01*
X623493Y419489D01*
X615365Y426367D02*
X615045Y426371D01*
X614726Y426382D01*
X614406Y426401D01*
X614088Y426428D01*
X613770Y426462D01*
X613453Y426504D01*
X613137Y426554D01*
X612822Y426611D01*
X612509Y426675D01*
X612197Y426747D01*
X611887Y426826D01*
X611580Y426913D01*
X611274Y427007D01*
X610971Y427108D01*
X610670Y427217D01*
X610372Y427332D01*
X610076Y427455D01*
X609784Y427585D01*
X609495Y427722D01*
X609494Y427722D02*
X609386Y427761D01*
X609279Y427804D01*
X609174Y427850D01*
X609071Y427900D01*
X608969Y427954D01*
X608869Y428011D01*
X608771Y428072D01*
X608675Y428136D01*
X608582Y428203D01*
X608491Y428273D01*
X608402Y428347D01*
X608316Y428423D01*
X608233Y428503D01*
X608152Y428585D01*
X608074Y428670D01*
X608000Y428757D01*
X607928Y428848D01*
X607859Y428940D01*
X607794Y429035D01*
X607732Y429132D01*
X607673Y429231D01*
X607618Y429332D01*
X607567Y429435D01*
X607519Y429540D01*
X607474Y429646D01*
X607433Y429753D01*
X607396Y429862D01*
X607363Y429973D01*
X607334Y430084D01*
X607308Y430196D01*
X607286Y430309D01*
X607269Y430423D01*
X607255Y430537D01*
X607245Y430652D01*
X607239Y430767D01*
X607237Y430882D01*
X607239Y430997D01*
X607245Y431112D01*
X607255Y431227D01*
X607269Y431341D01*
X607286Y431455D01*
X607308Y431568D01*
X607334Y431680D01*
X607363Y431792D01*
X607396Y431902D01*
X607433Y432011D01*
X607474Y432119D01*
X607519Y432225D01*
X607567Y432330D01*
X607618Y432432D01*
X607674Y432534D01*
X607732Y432633D01*
X607794Y432730D01*
X607860Y432825D01*
X607928Y432917D01*
X608000Y433007D01*
X608074Y433095D01*
X608152Y433180D01*
X608233Y433262D01*
X608316Y433341D01*
X608402Y433418D01*
X608491Y433491D01*
X608582Y433562D01*
X608676Y433629D01*
X608771Y433693D01*
X608869Y433754D01*
X608969Y433811D01*
X609071Y433864D01*
X609175Y433915D01*
X609280Y433961D01*
X609387Y434004D01*
X609495Y434043D01*
X609784Y434180D01*
X610076Y434310D01*
X610372Y434433D01*
X610670Y434548D01*
X610971Y434657D01*
X611274Y434758D01*
X611580Y434852D01*
X611887Y434939D01*
X612197Y435018D01*
X612509Y435090D01*
X612822Y435154D01*
X613137Y435211D01*
X613453Y435261D01*
X613770Y435303D01*
X614088Y435337D01*
X614406Y435364D01*
X614726Y435383D01*
X615045Y435394D01*
X615365Y435398D01*
X615365Y426367D02*
X615685Y426371D01*
X616004Y426382D01*
X616324Y426401D01*
X616642Y426428D01*
X616960Y426462D01*
X617277Y426504D01*
X617593Y426554D01*
X617908Y426611D01*
X618221Y426675D01*
X618533Y426747D01*
X618843Y426826D01*
X619150Y426913D01*
X619456Y427007D01*
X619759Y427108D01*
X620060Y427217D01*
X620358Y427332D01*
X620654Y427455D01*
X620946Y427585D01*
X621235Y427722D01*
X621236Y427721D02*
X621344Y427760D01*
X621451Y427803D01*
X621556Y427849D01*
X621660Y427900D01*
X621762Y427953D01*
X621862Y428010D01*
X621960Y428071D01*
X622055Y428135D01*
X622149Y428202D01*
X622240Y428273D01*
X622329Y428346D01*
X622415Y428423D01*
X622498Y428502D01*
X622579Y428584D01*
X622657Y428669D01*
X622731Y428757D01*
X622803Y428847D01*
X622872Y428940D01*
X622937Y429034D01*
X622999Y429131D01*
X623057Y429231D01*
X623113Y429332D01*
X623164Y429434D01*
X623212Y429539D01*
X623257Y429645D01*
X623298Y429753D01*
X623335Y429862D01*
X623368Y429972D01*
X623397Y430084D01*
X623423Y430196D01*
X623445Y430309D01*
X623462Y430423D01*
X623476Y430537D01*
X623486Y430652D01*
X623492Y430767D01*
X623494Y430882D01*
X621235Y434043D02*
X620946Y434180D01*
X620654Y434310D01*
X620358Y434433D01*
X620060Y434548D01*
X619759Y434657D01*
X619456Y434758D01*
X619150Y434852D01*
X618843Y434939D01*
X618533Y435018D01*
X618221Y435090D01*
X617908Y435154D01*
X617593Y435211D01*
X617277Y435261D01*
X616960Y435303D01*
X616642Y435337D01*
X616324Y435364D01*
X616004Y435383D01*
X615685Y435394D01*
X615365Y435398D01*
X621235Y434043D02*
X621343Y434004D01*
X621450Y433961D01*
X621555Y433915D01*
X621659Y433864D01*
X621761Y433811D01*
X621861Y433754D01*
X621959Y433693D01*
X622054Y433629D01*
X622148Y433562D01*
X622239Y433491D01*
X622328Y433418D01*
X622414Y433341D01*
X622497Y433262D01*
X622578Y433180D01*
X622656Y433095D01*
X622730Y433007D01*
X622802Y432917D01*
X622871Y432824D01*
X622936Y432730D01*
X622998Y432633D01*
X623056Y432533D01*
X623112Y432432D01*
X623163Y432329D01*
X623211Y432225D01*
X623256Y432119D01*
X623297Y432011D01*
X623334Y431902D01*
X623367Y431792D01*
X623396Y431680D01*
X623422Y431568D01*
X623444Y431455D01*
X623461Y431341D01*
X623475Y431227D01*
X623485Y431112D01*
X623491Y430997D01*
X623493Y430882D01*
X619881Y427270D02*
X610849Y434495D01*
X615365Y441998D02*
X615045Y442002D01*
X614726Y442013D01*
X614406Y442032D01*
X614088Y442059D01*
X613770Y442093D01*
X613453Y442135D01*
X613137Y442185D01*
X612822Y442242D01*
X612509Y442306D01*
X612197Y442378D01*
X611887Y442457D01*
X611580Y442544D01*
X611274Y442638D01*
X610971Y442739D01*
X610670Y442848D01*
X610372Y442963D01*
X610076Y443086D01*
X609784Y443216D01*
X609495Y443353D01*
X609494Y443354D02*
X609386Y443393D01*
X609279Y443436D01*
X609174Y443482D01*
X609071Y443532D01*
X608969Y443586D01*
X608869Y443643D01*
X608771Y443704D01*
X608675Y443768D01*
X608582Y443835D01*
X608491Y443905D01*
X608402Y443979D01*
X608316Y444055D01*
X608233Y444135D01*
X608152Y444217D01*
X608074Y444302D01*
X608000Y444389D01*
X607928Y444480D01*
X607859Y444572D01*
X607794Y444667D01*
X607732Y444764D01*
X607673Y444863D01*
X607618Y444964D01*
X607567Y445067D01*
X607519Y445172D01*
X607474Y445278D01*
X607433Y445385D01*
X607396Y445494D01*
X607363Y445605D01*
X607334Y445716D01*
X607308Y445828D01*
X607286Y445941D01*
X607269Y446055D01*
X607255Y446169D01*
X607245Y446284D01*
X607239Y446399D01*
X607237Y446514D01*
X607239Y446629D01*
X607245Y446744D01*
X607255Y446859D01*
X607269Y446973D01*
X607286Y447087D01*
X607308Y447200D01*
X607334Y447312D01*
X607363Y447424D01*
X607396Y447534D01*
X607433Y447643D01*
X607474Y447751D01*
X607519Y447857D01*
X607567Y447962D01*
X607618Y448064D01*
X607674Y448166D01*
X607732Y448265D01*
X607794Y448362D01*
X607860Y448457D01*
X607928Y448549D01*
X608000Y448639D01*
X608074Y448727D01*
X608152Y448812D01*
X608233Y448894D01*
X608316Y448973D01*
X608402Y449050D01*
X608491Y449123D01*
X608582Y449194D01*
X608676Y449261D01*
X608771Y449325D01*
X608869Y449386D01*
X608969Y449443D01*
X609071Y449496D01*
X609175Y449547D01*
X609280Y449593D01*
X609387Y449636D01*
X609495Y449675D01*
X609495Y449674D02*
X609784Y449811D01*
X610076Y449941D01*
X610372Y450064D01*
X610670Y450179D01*
X610971Y450288D01*
X611274Y450389D01*
X611580Y450483D01*
X611887Y450570D01*
X612197Y450649D01*
X612509Y450721D01*
X612822Y450785D01*
X613137Y450842D01*
X613453Y450892D01*
X613770Y450934D01*
X614088Y450968D01*
X614406Y450995D01*
X614726Y451014D01*
X615045Y451025D01*
X615365Y451029D01*
X615365Y441998D02*
X615685Y442002D01*
X616004Y442013D01*
X616324Y442032D01*
X616642Y442059D01*
X616960Y442093D01*
X617277Y442135D01*
X617593Y442185D01*
X617908Y442242D01*
X618221Y442306D01*
X618533Y442378D01*
X618843Y442457D01*
X619150Y442544D01*
X619456Y442638D01*
X619759Y442739D01*
X620060Y442848D01*
X620358Y442963D01*
X620654Y443086D01*
X620946Y443216D01*
X621235Y443353D01*
X621236Y443353D02*
X621344Y443392D01*
X621451Y443435D01*
X621556Y443481D01*
X621660Y443532D01*
X621762Y443585D01*
X621862Y443642D01*
X621960Y443703D01*
X622055Y443767D01*
X622149Y443834D01*
X622240Y443905D01*
X622329Y443978D01*
X622415Y444055D01*
X622498Y444134D01*
X622579Y444216D01*
X622657Y444301D01*
X622731Y444389D01*
X622803Y444479D01*
X622872Y444572D01*
X622937Y444666D01*
X622999Y444763D01*
X623057Y444863D01*
X623113Y444964D01*
X623164Y445066D01*
X623212Y445171D01*
X623257Y445277D01*
X623298Y445385D01*
X623335Y445494D01*
X623368Y445604D01*
X623397Y445716D01*
X623423Y445828D01*
X623445Y445941D01*
X623462Y446055D01*
X623476Y446169D01*
X623486Y446284D01*
X623492Y446399D01*
X623494Y446514D01*
X621235Y449674D02*
X620946Y449811D01*
X620654Y449941D01*
X620358Y450064D01*
X620060Y450179D01*
X619759Y450288D01*
X619456Y450389D01*
X619150Y450483D01*
X618843Y450570D01*
X618533Y450649D01*
X618221Y450721D01*
X617908Y450785D01*
X617593Y450842D01*
X617277Y450892D01*
X616960Y450934D01*
X616642Y450968D01*
X616324Y450995D01*
X616004Y451014D01*
X615685Y451025D01*
X615365Y451029D01*
X621235Y449675D02*
X621343Y449636D01*
X621450Y449593D01*
X621555Y449547D01*
X621659Y449496D01*
X621761Y449443D01*
X621861Y449386D01*
X621959Y449325D01*
X622054Y449261D01*
X622148Y449194D01*
X622239Y449123D01*
X622328Y449050D01*
X622414Y448973D01*
X622497Y448894D01*
X622578Y448812D01*
X622656Y448727D01*
X622730Y448639D01*
X622802Y448549D01*
X622871Y448456D01*
X622936Y448362D01*
X622998Y448265D01*
X623056Y448165D01*
X623112Y448064D01*
X623163Y447961D01*
X623211Y447857D01*
X623256Y447751D01*
X623297Y447643D01*
X623334Y447534D01*
X623367Y447424D01*
X623396Y447312D01*
X623422Y447200D01*
X623444Y447087D01*
X623461Y446973D01*
X623475Y446859D01*
X623485Y446744D01*
X623491Y446629D01*
X623493Y446514D01*
X619881Y442901D02*
X610849Y450126D01*
D10*
X0Y540000D02*
X0Y644500D01*
X240000Y644500D02*
X240000Y540000D01*
X239350Y625000D02*
X650Y625000D01*
X26000Y628192D01*
X26000Y621808D01*
X650Y625000D01*
X26000Y626300D01*
X26000Y623700D02*
X650Y625000D01*
X26000Y627600D01*
X26000Y622400D02*
X650Y625000D01*
X214000Y628192D02*
X239350Y625000D01*
X214000Y628192D02*
X214000Y621808D01*
X239350Y625000D01*
X214000Y626300D01*
X214000Y623700D02*
X239350Y625000D01*
X214000Y627600D01*
X214000Y622400D02*
X239350Y625000D01*
D11*
X97883Y643699D02*
X97881Y643824D01*
X97875Y643949D01*
X97866Y644074D01*
X97852Y644198D01*
X97835Y644322D01*
X97814Y644446D01*
X97789Y644568D01*
X97760Y644690D01*
X97728Y644811D01*
X97692Y644931D01*
X97652Y645050D01*
X97609Y645167D01*
X97562Y645283D01*
X97511Y645398D01*
X97457Y645510D01*
X97399Y645622D01*
X97339Y645731D01*
X97274Y645838D01*
X97207Y645944D01*
X97136Y646047D01*
X97062Y646148D01*
X96985Y646247D01*
X96905Y646343D01*
X96822Y646437D01*
X96737Y646528D01*
X96648Y646617D01*
X96557Y646702D01*
X96463Y646785D01*
X96367Y646865D01*
X96268Y646942D01*
X96167Y647016D01*
X96064Y647087D01*
X95958Y647154D01*
X95851Y647219D01*
X95742Y647279D01*
X95630Y647337D01*
X95518Y647391D01*
X95403Y647442D01*
X95287Y647489D01*
X95170Y647532D01*
X95051Y647572D01*
X94931Y647608D01*
X94810Y647640D01*
X94688Y647669D01*
X94566Y647694D01*
X94442Y647715D01*
X94318Y647732D01*
X94194Y647746D01*
X94069Y647755D01*
X93944Y647761D01*
X93819Y647763D01*
X93676Y647761D01*
X93534Y647755D01*
X93391Y647745D01*
X93249Y647732D01*
X93108Y647714D01*
X92966Y647693D01*
X92826Y647668D01*
X92686Y647639D01*
X92547Y647606D01*
X92409Y647569D01*
X92272Y647529D01*
X92137Y647485D01*
X92002Y647437D01*
X91869Y647385D01*
X91737Y647330D01*
X91607Y647271D01*
X91479Y647209D01*
X91352Y647143D01*
X91227Y647074D01*
X91104Y647002D01*
X90984Y646926D01*
X90865Y646847D01*
X90748Y646764D01*
X90634Y646679D01*
X90522Y646590D01*
X90413Y646499D01*
X90306Y646404D01*
X90201Y646307D01*
X90100Y646206D01*
X90001Y646103D01*
X89905Y645998D01*
X89812Y645889D01*
X89722Y645778D01*
X89635Y645665D01*
X89551Y645550D01*
X89471Y645432D01*
X89393Y645312D01*
X89319Y645190D01*
X89249Y645066D01*
X89181Y644940D01*
X89118Y644812D01*
X89057Y644683D01*
X89000Y644552D01*
X88947Y644420D01*
X88898Y644286D01*
X88852Y644151D01*
X96528Y640538D02*
X96622Y640630D01*
X96712Y640724D01*
X96800Y640821D01*
X96885Y640921D01*
X96967Y641023D01*
X97046Y641128D01*
X97121Y641235D01*
X97193Y641344D01*
X97262Y641455D01*
X97328Y641569D01*
X97390Y641684D01*
X97449Y641801D01*
X97504Y641920D01*
X97555Y642040D01*
X97603Y642162D01*
X97648Y642285D01*
X97688Y642409D01*
X97725Y642535D01*
X97758Y642662D01*
X97787Y642789D01*
X97813Y642918D01*
X97834Y643047D01*
X97852Y643177D01*
X97865Y643307D01*
X97875Y643437D01*
X97881Y643568D01*
X97883Y643699D01*
X96528Y640538D02*
X88852Y631507D01*
X97883Y631507D01*
X104483Y635119D02*
X108096Y647763D01*
X104483Y635119D02*
X113514Y635119D01*
X110805Y638732D02*
X110805Y631507D01*
X119489Y631507D02*
X119489Y632410D01*
X120392Y632410D01*
X120392Y631507D01*
X119489Y631507D01*
X126367Y639635D02*
X126371Y639955D01*
X126382Y640274D01*
X126401Y640594D01*
X126428Y640912D01*
X126462Y641230D01*
X126504Y641547D01*
X126554Y641863D01*
X126611Y642178D01*
X126675Y642491D01*
X126747Y642803D01*
X126826Y643113D01*
X126913Y643420D01*
X127007Y643726D01*
X127108Y644029D01*
X127217Y644330D01*
X127332Y644628D01*
X127455Y644924D01*
X127585Y645216D01*
X127722Y645505D01*
X127721Y645506D02*
X127760Y645614D01*
X127803Y645721D01*
X127849Y645826D01*
X127900Y645930D01*
X127953Y646032D01*
X128010Y646132D01*
X128071Y646230D01*
X128135Y646325D01*
X128202Y646419D01*
X128273Y646510D01*
X128346Y646599D01*
X128423Y646685D01*
X128502Y646768D01*
X128584Y646849D01*
X128669Y646927D01*
X128757Y647001D01*
X128847Y647073D01*
X128939Y647141D01*
X129034Y647207D01*
X129131Y647269D01*
X129230Y647327D01*
X129332Y647383D01*
X129434Y647434D01*
X129539Y647482D01*
X129645Y647527D01*
X129753Y647568D01*
X129862Y647605D01*
X129972Y647638D01*
X130084Y647667D01*
X130196Y647693D01*
X130309Y647715D01*
X130423Y647732D01*
X130537Y647746D01*
X130652Y647756D01*
X130767Y647762D01*
X130882Y647764D01*
X130882Y647763D02*
X130997Y647761D01*
X131112Y647755D01*
X131227Y647745D01*
X131341Y647731D01*
X131455Y647714D01*
X131568Y647692D01*
X131680Y647666D01*
X131792Y647637D01*
X131902Y647604D01*
X132011Y647567D01*
X132119Y647526D01*
X132225Y647481D01*
X132330Y647433D01*
X132432Y647382D01*
X132533Y647326D01*
X132633Y647268D01*
X132730Y647206D01*
X132824Y647141D01*
X132917Y647072D01*
X133007Y647000D01*
X133095Y646926D01*
X133180Y646848D01*
X133262Y646767D01*
X133341Y646684D01*
X133418Y646598D01*
X133491Y646509D01*
X133562Y646418D01*
X133629Y646324D01*
X133693Y646229D01*
X133754Y646131D01*
X133811Y646031D01*
X133864Y645929D01*
X133915Y645825D01*
X133961Y645720D01*
X134004Y645613D01*
X134043Y645505D01*
X134180Y645216D01*
X134310Y644924D01*
X134433Y644628D01*
X134548Y644330D01*
X134657Y644029D01*
X134758Y643726D01*
X134852Y643420D01*
X134939Y643113D01*
X135018Y642803D01*
X135090Y642491D01*
X135154Y642178D01*
X135211Y641863D01*
X135261Y641547D01*
X135303Y641230D01*
X135337Y640912D01*
X135364Y640594D01*
X135383Y640274D01*
X135394Y639955D01*
X135398Y639635D01*
X126367Y639635D02*
X126371Y639315D01*
X126382Y638996D01*
X126401Y638676D01*
X126428Y638358D01*
X126462Y638040D01*
X126504Y637723D01*
X126554Y637407D01*
X126611Y637092D01*
X126675Y636779D01*
X126747Y636467D01*
X126826Y636157D01*
X126913Y635850D01*
X127007Y635544D01*
X127108Y635241D01*
X127217Y634940D01*
X127332Y634642D01*
X127455Y634346D01*
X127585Y634054D01*
X127722Y633765D01*
X127721Y633765D02*
X127760Y633657D01*
X127803Y633550D01*
X127849Y633445D01*
X127900Y633341D01*
X127953Y633239D01*
X128010Y633139D01*
X128071Y633041D01*
X128135Y632946D01*
X128202Y632852D01*
X128273Y632761D01*
X128346Y632672D01*
X128423Y632586D01*
X128502Y632503D01*
X128584Y632422D01*
X128669Y632344D01*
X128757Y632270D01*
X128847Y632198D01*
X128940Y632129D01*
X129034Y632064D01*
X129131Y632002D01*
X129231Y631944D01*
X129332Y631888D01*
X129434Y631837D01*
X129539Y631789D01*
X129645Y631744D01*
X129753Y631703D01*
X129862Y631666D01*
X129972Y631633D01*
X130084Y631604D01*
X130196Y631578D01*
X130309Y631556D01*
X130423Y631539D01*
X130537Y631525D01*
X130652Y631515D01*
X130767Y631509D01*
X130882Y631507D01*
X134043Y633765D02*
X134180Y634054D01*
X134310Y634346D01*
X134433Y634642D01*
X134548Y634940D01*
X134657Y635241D01*
X134758Y635544D01*
X134852Y635850D01*
X134939Y636157D01*
X135018Y636467D01*
X135090Y636779D01*
X135154Y637092D01*
X135211Y637407D01*
X135261Y637723D01*
X135303Y638040D01*
X135337Y638358D01*
X135364Y638676D01*
X135383Y638996D01*
X135394Y639315D01*
X135398Y639635D01*
X134043Y633765D02*
X134004Y633657D01*
X133961Y633550D01*
X133915Y633445D01*
X133864Y633341D01*
X133811Y633239D01*
X133754Y633139D01*
X133693Y633041D01*
X133629Y632946D01*
X133562Y632852D01*
X133491Y632761D01*
X133418Y632672D01*
X133341Y632586D01*
X133262Y632503D01*
X133180Y632422D01*
X133095Y632344D01*
X133007Y632270D01*
X132917Y632198D01*
X132824Y632129D01*
X132730Y632064D01*
X132633Y632002D01*
X132533Y631944D01*
X132432Y631888D01*
X132329Y631837D01*
X132225Y631789D01*
X132119Y631744D01*
X132011Y631703D01*
X131902Y631666D01*
X131792Y631633D01*
X131680Y631604D01*
X131568Y631578D01*
X131455Y631556D01*
X131341Y631539D01*
X131227Y631525D01*
X131112Y631515D01*
X130997Y631509D01*
X130882Y631507D01*
X127270Y635119D02*
X134495Y644151D01*
X141998Y639635D02*
X142002Y639955D01*
X142013Y640274D01*
X142032Y640594D01*
X142059Y640912D01*
X142093Y641230D01*
X142135Y641547D01*
X142185Y641863D01*
X142242Y642178D01*
X142306Y642491D01*
X142378Y642803D01*
X142457Y643113D01*
X142544Y643420D01*
X142638Y643726D01*
X142739Y644029D01*
X142848Y644330D01*
X142963Y644628D01*
X143086Y644924D01*
X143216Y645216D01*
X143353Y645505D01*
X143353Y645506D02*
X143392Y645614D01*
X143435Y645721D01*
X143481Y645826D01*
X143532Y645930D01*
X143585Y646032D01*
X143642Y646132D01*
X143703Y646230D01*
X143767Y646325D01*
X143834Y646419D01*
X143905Y646510D01*
X143978Y646599D01*
X144055Y646685D01*
X144134Y646768D01*
X144216Y646849D01*
X144301Y646927D01*
X144389Y647001D01*
X144479Y647073D01*
X144571Y647141D01*
X144666Y647207D01*
X144763Y647269D01*
X144862Y647327D01*
X144964Y647383D01*
X145066Y647434D01*
X145171Y647482D01*
X145277Y647527D01*
X145385Y647568D01*
X145494Y647605D01*
X145604Y647638D01*
X145716Y647667D01*
X145828Y647693D01*
X145941Y647715D01*
X146055Y647732D01*
X146169Y647746D01*
X146284Y647756D01*
X146399Y647762D01*
X146514Y647764D01*
X146514Y647763D02*
X146629Y647761D01*
X146744Y647755D01*
X146859Y647745D01*
X146973Y647731D01*
X147087Y647714D01*
X147200Y647692D01*
X147312Y647666D01*
X147424Y647637D01*
X147534Y647604D01*
X147643Y647567D01*
X147751Y647526D01*
X147857Y647481D01*
X147962Y647433D01*
X148064Y647382D01*
X148165Y647326D01*
X148265Y647268D01*
X148362Y647206D01*
X148456Y647141D01*
X148549Y647072D01*
X148639Y647000D01*
X148727Y646926D01*
X148812Y646848D01*
X148894Y646767D01*
X148973Y646684D01*
X149050Y646598D01*
X149123Y646509D01*
X149194Y646418D01*
X149261Y646324D01*
X149325Y646229D01*
X149386Y646131D01*
X149443Y646031D01*
X149496Y645929D01*
X149547Y645825D01*
X149593Y645720D01*
X149636Y645613D01*
X149675Y645505D01*
X149674Y645505D02*
X149811Y645216D01*
X149941Y644924D01*
X150064Y644628D01*
X150179Y644330D01*
X150288Y644029D01*
X150389Y643726D01*
X150483Y643420D01*
X150570Y643113D01*
X150649Y642803D01*
X150721Y642491D01*
X150785Y642178D01*
X150842Y641863D01*
X150892Y641547D01*
X150934Y641230D01*
X150968Y640912D01*
X150995Y640594D01*
X151014Y640274D01*
X151025Y639955D01*
X151029Y639635D01*
X141998Y639635D02*
X142002Y639315D01*
X142013Y638996D01*
X142032Y638676D01*
X142059Y638358D01*
X142093Y638040D01*
X142135Y637723D01*
X142185Y637407D01*
X142242Y637092D01*
X142306Y636779D01*
X142378Y636467D01*
X142457Y636157D01*
X142544Y635850D01*
X142638Y635544D01*
X142739Y635241D01*
X142848Y634940D01*
X142963Y634642D01*
X143086Y634346D01*
X143216Y634054D01*
X143353Y633765D01*
X143392Y633657D01*
X143435Y633550D01*
X143481Y633445D01*
X143532Y633341D01*
X143585Y633239D01*
X143642Y633139D01*
X143703Y633041D01*
X143767Y632946D01*
X143834Y632852D01*
X143905Y632761D01*
X143978Y632672D01*
X144055Y632586D01*
X144134Y632503D01*
X144216Y632422D01*
X144301Y632344D01*
X144389Y632270D01*
X144479Y632198D01*
X144572Y632129D01*
X144666Y632064D01*
X144763Y632002D01*
X144863Y631944D01*
X144964Y631888D01*
X145066Y631837D01*
X145171Y631789D01*
X145277Y631744D01*
X145385Y631703D01*
X145494Y631666D01*
X145604Y631633D01*
X145716Y631604D01*
X145828Y631578D01*
X145941Y631556D01*
X146055Y631539D01*
X146169Y631525D01*
X146284Y631515D01*
X146399Y631509D01*
X146514Y631507D01*
X149674Y633765D02*
X149811Y634054D01*
X149941Y634346D01*
X150064Y634642D01*
X150179Y634940D01*
X150288Y635241D01*
X150389Y635544D01*
X150483Y635850D01*
X150570Y636157D01*
X150649Y636467D01*
X150721Y636779D01*
X150785Y637092D01*
X150842Y637407D01*
X150892Y637723D01*
X150934Y638040D01*
X150968Y638358D01*
X150995Y638676D01*
X151014Y638996D01*
X151025Y639315D01*
X151029Y639635D01*
X149675Y633765D02*
X149636Y633657D01*
X149593Y633550D01*
X149547Y633445D01*
X149496Y633341D01*
X149443Y633239D01*
X149386Y633139D01*
X149325Y633041D01*
X149261Y632946D01*
X149194Y632852D01*
X149123Y632761D01*
X149050Y632672D01*
X148973Y632586D01*
X148894Y632503D01*
X148812Y632422D01*
X148727Y632344D01*
X148639Y632270D01*
X148549Y632198D01*
X148456Y632129D01*
X148362Y632064D01*
X148265Y632002D01*
X148165Y631944D01*
X148064Y631888D01*
X147961Y631837D01*
X147857Y631789D01*
X147751Y631744D01*
X147643Y631703D01*
X147534Y631666D01*
X147424Y631633D01*
X147312Y631604D01*
X147200Y631578D01*
X147087Y631556D01*
X146973Y631539D01*
X146859Y631525D01*
X146744Y631515D01*
X146629Y631509D01*
X146514Y631507D01*
X142901Y635119D02*
X150126Y644151D01*
D10*
X240000Y644500D02*
X240000Y540000D01*
X590000Y540000D02*
X590000Y644500D01*
X589350Y625000D02*
X240650Y625000D01*
X266000Y628192D01*
X266000Y621808D01*
X240650Y625000D01*
X266000Y626300D01*
X266000Y623700D02*
X240650Y625000D01*
X266000Y627600D01*
X266000Y622400D02*
X240650Y625000D01*
X564000Y628192D02*
X589350Y625000D01*
X564000Y628192D02*
X564000Y621808D01*
X589350Y625000D01*
X564000Y626300D01*
X564000Y623700D02*
X589350Y625000D01*
X564000Y627600D01*
X564000Y622400D02*
X589350Y625000D01*
D11*
X388368Y631507D02*
X383852Y631507D01*
X388368Y631507D02*
X388501Y631509D01*
X388633Y631515D01*
X388765Y631525D01*
X388897Y631538D01*
X389029Y631556D01*
X389159Y631577D01*
X389290Y631602D01*
X389419Y631631D01*
X389547Y631664D01*
X389675Y631700D01*
X389801Y631740D01*
X389926Y631784D01*
X390050Y631832D01*
X390172Y631883D01*
X390293Y631938D01*
X390412Y631996D01*
X390530Y632058D01*
X390645Y632123D01*
X390759Y632192D01*
X390870Y632263D01*
X390979Y632339D01*
X391086Y632417D01*
X391191Y632498D01*
X391293Y632583D01*
X391393Y632670D01*
X391490Y632760D01*
X391585Y632853D01*
X391676Y632949D01*
X391765Y633047D01*
X391851Y633148D01*
X391934Y633252D01*
X392014Y633358D01*
X392090Y633466D01*
X392164Y633576D01*
X392234Y633689D01*
X392301Y633803D01*
X392364Y633920D01*
X392424Y634038D01*
X392481Y634158D01*
X392534Y634280D01*
X392583Y634403D01*
X392629Y634527D01*
X392671Y634653D01*
X392709Y634780D01*
X392744Y634908D01*
X392775Y635037D01*
X392802Y635166D01*
X392825Y635297D01*
X392845Y635428D01*
X392860Y635560D01*
X392872Y635692D01*
X392880Y635824D01*
X392884Y635957D01*
X392884Y636089D01*
X392880Y636222D01*
X392872Y636354D01*
X392860Y636486D01*
X392845Y636618D01*
X392825Y636749D01*
X392802Y636880D01*
X392775Y637009D01*
X392744Y637138D01*
X392709Y637266D01*
X392671Y637393D01*
X392629Y637519D01*
X392583Y637643D01*
X392534Y637766D01*
X392481Y637888D01*
X392424Y638008D01*
X392364Y638126D01*
X392301Y638243D01*
X392234Y638357D01*
X392164Y638470D01*
X392090Y638580D01*
X392014Y638688D01*
X391934Y638794D01*
X391851Y638898D01*
X391765Y638999D01*
X391676Y639097D01*
X391585Y639193D01*
X391490Y639286D01*
X391393Y639376D01*
X391293Y639463D01*
X391191Y639548D01*
X391086Y639629D01*
X390979Y639707D01*
X390870Y639783D01*
X390759Y639854D01*
X390645Y639923D01*
X390530Y639988D01*
X390412Y640050D01*
X390293Y640108D01*
X390172Y640163D01*
X390050Y640214D01*
X389926Y640262D01*
X389801Y640306D01*
X389675Y640346D01*
X389547Y640382D01*
X389419Y640415D01*
X389290Y640444D01*
X389159Y640469D01*
X389029Y640490D01*
X388897Y640508D01*
X388765Y640521D01*
X388633Y640531D01*
X388501Y640537D01*
X388368Y640539D01*
X389271Y647763D02*
X383852Y647763D01*
X389271Y647763D02*
X389390Y647761D01*
X389510Y647755D01*
X389629Y647745D01*
X389747Y647731D01*
X389866Y647714D01*
X389983Y647692D01*
X390100Y647667D01*
X390215Y647637D01*
X390330Y647604D01*
X390444Y647567D01*
X390556Y647527D01*
X390667Y647482D01*
X390776Y647434D01*
X390884Y647383D01*
X390990Y647328D01*
X391094Y647269D01*
X391196Y647207D01*
X391296Y647142D01*
X391394Y647073D01*
X391490Y647001D01*
X391583Y646926D01*
X391673Y646849D01*
X391761Y646768D01*
X391846Y646684D01*
X391928Y646597D01*
X392008Y646508D01*
X392084Y646416D01*
X392158Y646322D01*
X392228Y646225D01*
X392295Y646127D01*
X392359Y646026D01*
X392419Y645922D01*
X392476Y645817D01*
X392529Y645710D01*
X392579Y645602D01*
X392625Y645492D01*
X392667Y645380D01*
X392706Y645267D01*
X392741Y645153D01*
X392772Y645038D01*
X392800Y644921D01*
X392823Y644804D01*
X392843Y644687D01*
X392859Y644568D01*
X392871Y644449D01*
X392879Y644330D01*
X392883Y644211D01*
X392883Y644091D01*
X392879Y643972D01*
X392871Y643853D01*
X392859Y643734D01*
X392843Y643615D01*
X392823Y643498D01*
X392800Y643381D01*
X392772Y643264D01*
X392741Y643149D01*
X392706Y643035D01*
X392667Y642922D01*
X392625Y642810D01*
X392579Y642700D01*
X392529Y642592D01*
X392476Y642485D01*
X392419Y642380D01*
X392359Y642276D01*
X392295Y642175D01*
X392228Y642077D01*
X392158Y641980D01*
X392084Y641886D01*
X392008Y641794D01*
X391928Y641705D01*
X391846Y641618D01*
X391761Y641534D01*
X391673Y641453D01*
X391583Y641376D01*
X391490Y641301D01*
X391394Y641229D01*
X391296Y641160D01*
X391196Y641095D01*
X391094Y641033D01*
X390990Y640974D01*
X390884Y640919D01*
X390776Y640868D01*
X390667Y640820D01*
X390556Y640775D01*
X390444Y640735D01*
X390330Y640698D01*
X390215Y640665D01*
X390100Y640635D01*
X389983Y640610D01*
X389866Y640588D01*
X389747Y640571D01*
X389629Y640557D01*
X389510Y640547D01*
X389390Y640541D01*
X389271Y640539D01*
X389271Y640538D02*
X385658Y640538D01*
X399483Y631507D02*
X404902Y631507D01*
X405020Y631509D01*
X405138Y631515D01*
X405256Y631524D01*
X405373Y631538D01*
X405490Y631555D01*
X405607Y631576D01*
X405722Y631601D01*
X405837Y631630D01*
X405951Y631663D01*
X406063Y631699D01*
X406174Y631739D01*
X406284Y631782D01*
X406393Y631829D01*
X406500Y631879D01*
X406605Y631934D01*
X406708Y631991D01*
X406809Y632052D01*
X406909Y632116D01*
X407006Y632183D01*
X407101Y632253D01*
X407193Y632327D01*
X407284Y632403D01*
X407371Y632483D01*
X407456Y632565D01*
X407538Y632650D01*
X407618Y632737D01*
X407694Y632828D01*
X407768Y632920D01*
X407838Y633015D01*
X407905Y633112D01*
X407969Y633212D01*
X408030Y633313D01*
X408087Y633416D01*
X408142Y633521D01*
X408192Y633628D01*
X408239Y633737D01*
X408282Y633847D01*
X408322Y633958D01*
X408358Y634070D01*
X408391Y634184D01*
X408420Y634299D01*
X408445Y634414D01*
X408466Y634531D01*
X408483Y634648D01*
X408497Y634765D01*
X408506Y634883D01*
X408512Y635001D01*
X408514Y635119D01*
X408514Y636926D01*
X408512Y637044D01*
X408506Y637162D01*
X408497Y637280D01*
X408483Y637397D01*
X408466Y637514D01*
X408445Y637631D01*
X408420Y637746D01*
X408391Y637861D01*
X408358Y637975D01*
X408322Y638087D01*
X408282Y638198D01*
X408239Y638308D01*
X408192Y638417D01*
X408142Y638524D01*
X408087Y638629D01*
X408030Y638732D01*
X407969Y638833D01*
X407905Y638933D01*
X407838Y639030D01*
X407768Y639125D01*
X407694Y639217D01*
X407618Y639308D01*
X407538Y639395D01*
X407456Y639480D01*
X407371Y639562D01*
X407284Y639642D01*
X407193Y639718D01*
X407101Y639792D01*
X407006Y639862D01*
X406909Y639929D01*
X406809Y639993D01*
X406708Y640054D01*
X406605Y640111D01*
X406500Y640166D01*
X406393Y640216D01*
X406284Y640263D01*
X406174Y640306D01*
X406063Y640346D01*
X405951Y640382D01*
X405837Y640415D01*
X405722Y640444D01*
X405607Y640469D01*
X405490Y640490D01*
X405373Y640507D01*
X405256Y640521D01*
X405138Y640530D01*
X405020Y640536D01*
X404902Y640538D01*
X399483Y640538D01*
X399483Y647763D01*
X408514Y647763D01*
X414489Y632410D02*
X414489Y631507D01*
X414489Y632410D02*
X415392Y632410D01*
X415392Y631507D01*
X414489Y631507D01*
X421367Y639635D02*
X421371Y639955D01*
X421382Y640274D01*
X421401Y640594D01*
X421428Y640912D01*
X421462Y641230D01*
X421504Y641547D01*
X421554Y641863D01*
X421611Y642178D01*
X421675Y642491D01*
X421747Y642803D01*
X421826Y643113D01*
X421913Y643420D01*
X422007Y643726D01*
X422108Y644029D01*
X422217Y644330D01*
X422332Y644628D01*
X422455Y644924D01*
X422585Y645216D01*
X422722Y645505D01*
X422721Y645506D02*
X422760Y645614D01*
X422803Y645721D01*
X422849Y645826D01*
X422900Y645930D01*
X422953Y646032D01*
X423010Y646132D01*
X423071Y646230D01*
X423135Y646325D01*
X423202Y646419D01*
X423273Y646510D01*
X423346Y646599D01*
X423423Y646685D01*
X423502Y646768D01*
X423584Y646849D01*
X423669Y646927D01*
X423757Y647001D01*
X423847Y647073D01*
X423939Y647141D01*
X424034Y647207D01*
X424131Y647269D01*
X424230Y647327D01*
X424332Y647383D01*
X424434Y647434D01*
X424539Y647482D01*
X424645Y647527D01*
X424753Y647568D01*
X424862Y647605D01*
X424972Y647638D01*
X425084Y647667D01*
X425196Y647693D01*
X425309Y647715D01*
X425423Y647732D01*
X425537Y647746D01*
X425652Y647756D01*
X425767Y647762D01*
X425882Y647764D01*
X425882Y647763D02*
X425997Y647761D01*
X426112Y647755D01*
X426227Y647745D01*
X426341Y647731D01*
X426455Y647714D01*
X426568Y647692D01*
X426680Y647666D01*
X426792Y647637D01*
X426902Y647604D01*
X427011Y647567D01*
X427119Y647526D01*
X427225Y647481D01*
X427330Y647433D01*
X427432Y647382D01*
X427533Y647326D01*
X427633Y647268D01*
X427730Y647206D01*
X427824Y647141D01*
X427917Y647072D01*
X428007Y647000D01*
X428095Y646926D01*
X428180Y646848D01*
X428262Y646767D01*
X428341Y646684D01*
X428418Y646598D01*
X428491Y646509D01*
X428562Y646418D01*
X428629Y646324D01*
X428693Y646229D01*
X428754Y646131D01*
X428811Y646031D01*
X428864Y645929D01*
X428915Y645825D01*
X428961Y645720D01*
X429004Y645613D01*
X429043Y645505D01*
X429180Y645216D01*
X429310Y644924D01*
X429433Y644628D01*
X429548Y644330D01*
X429657Y644029D01*
X429758Y643726D01*
X429852Y643420D01*
X429939Y643113D01*
X430018Y642803D01*
X430090Y642491D01*
X430154Y642178D01*
X430211Y641863D01*
X430261Y641547D01*
X430303Y641230D01*
X430337Y640912D01*
X430364Y640594D01*
X430383Y640274D01*
X430394Y639955D01*
X430398Y639635D01*
X421367Y639635D02*
X421371Y639315D01*
X421382Y638996D01*
X421401Y638676D01*
X421428Y638358D01*
X421462Y638040D01*
X421504Y637723D01*
X421554Y637407D01*
X421611Y637092D01*
X421675Y636779D01*
X421747Y636467D01*
X421826Y636157D01*
X421913Y635850D01*
X422007Y635544D01*
X422108Y635241D01*
X422217Y634940D01*
X422332Y634642D01*
X422455Y634346D01*
X422585Y634054D01*
X422722Y633765D01*
X422721Y633765D02*
X422760Y633657D01*
X422803Y633550D01*
X422849Y633445D01*
X422900Y633341D01*
X422953Y633239D01*
X423010Y633139D01*
X423071Y633041D01*
X423135Y632946D01*
X423202Y632852D01*
X423273Y632761D01*
X423346Y632672D01*
X423423Y632586D01*
X423502Y632503D01*
X423584Y632422D01*
X423669Y632344D01*
X423757Y632270D01*
X423847Y632198D01*
X423940Y632129D01*
X424034Y632064D01*
X424131Y632002D01*
X424231Y631944D01*
X424332Y631888D01*
X424434Y631837D01*
X424539Y631789D01*
X424645Y631744D01*
X424753Y631703D01*
X424862Y631666D01*
X424972Y631633D01*
X425084Y631604D01*
X425196Y631578D01*
X425309Y631556D01*
X425423Y631539D01*
X425537Y631525D01*
X425652Y631515D01*
X425767Y631509D01*
X425882Y631507D01*
X429043Y633765D02*
X429180Y634054D01*
X429310Y634346D01*
X429433Y634642D01*
X429548Y634940D01*
X429657Y635241D01*
X429758Y635544D01*
X429852Y635850D01*
X429939Y636157D01*
X430018Y636467D01*
X430090Y636779D01*
X430154Y637092D01*
X430211Y637407D01*
X430261Y637723D01*
X430303Y638040D01*
X430337Y638358D01*
X430364Y638676D01*
X430383Y638996D01*
X430394Y639315D01*
X430398Y639635D01*
X429043Y633765D02*
X429004Y633657D01*
X428961Y633550D01*
X428915Y633445D01*
X428864Y633341D01*
X428811Y633239D01*
X428754Y633139D01*
X428693Y633041D01*
X428629Y632946D01*
X428562Y632852D01*
X428491Y632761D01*
X428418Y632672D01*
X428341Y632586D01*
X428262Y632503D01*
X428180Y632422D01*
X428095Y632344D01*
X428007Y632270D01*
X427917Y632198D01*
X427824Y632129D01*
X427730Y632064D01*
X427633Y632002D01*
X427533Y631944D01*
X427432Y631888D01*
X427329Y631837D01*
X427225Y631789D01*
X427119Y631744D01*
X427011Y631703D01*
X426902Y631666D01*
X426792Y631633D01*
X426680Y631604D01*
X426568Y631578D01*
X426455Y631556D01*
X426341Y631539D01*
X426227Y631525D01*
X426112Y631515D01*
X425997Y631509D01*
X425882Y631507D01*
X422270Y635119D02*
X429495Y644151D01*
X436998Y639635D02*
X437002Y639955D01*
X437013Y640274D01*
X437032Y640594D01*
X437059Y640912D01*
X437093Y641230D01*
X437135Y641547D01*
X437185Y641863D01*
X437242Y642178D01*
X437306Y642491D01*
X437378Y642803D01*
X437457Y643113D01*
X437544Y643420D01*
X437638Y643726D01*
X437739Y644029D01*
X437848Y644330D01*
X437963Y644628D01*
X438086Y644924D01*
X438216Y645216D01*
X438353Y645505D01*
X438353Y645506D02*
X438392Y645614D01*
X438435Y645721D01*
X438481Y645826D01*
X438532Y645930D01*
X438585Y646032D01*
X438642Y646132D01*
X438703Y646230D01*
X438767Y646325D01*
X438834Y646419D01*
X438905Y646510D01*
X438978Y646599D01*
X439055Y646685D01*
X439134Y646768D01*
X439216Y646849D01*
X439301Y646927D01*
X439389Y647001D01*
X439479Y647073D01*
X439571Y647141D01*
X439666Y647207D01*
X439763Y647269D01*
X439862Y647327D01*
X439964Y647383D01*
X440066Y647434D01*
X440171Y647482D01*
X440277Y647527D01*
X440385Y647568D01*
X440494Y647605D01*
X440604Y647638D01*
X440716Y647667D01*
X440828Y647693D01*
X440941Y647715D01*
X441055Y647732D01*
X441169Y647746D01*
X441284Y647756D01*
X441399Y647762D01*
X441514Y647764D01*
X441514Y647763D02*
X441629Y647761D01*
X441744Y647755D01*
X441859Y647745D01*
X441973Y647731D01*
X442087Y647714D01*
X442200Y647692D01*
X442312Y647666D01*
X442424Y647637D01*
X442534Y647604D01*
X442643Y647567D01*
X442751Y647526D01*
X442857Y647481D01*
X442962Y647433D01*
X443064Y647382D01*
X443165Y647326D01*
X443265Y647268D01*
X443362Y647206D01*
X443456Y647141D01*
X443549Y647072D01*
X443639Y647000D01*
X443727Y646926D01*
X443812Y646848D01*
X443894Y646767D01*
X443973Y646684D01*
X444050Y646598D01*
X444123Y646509D01*
X444194Y646418D01*
X444261Y646324D01*
X444325Y646229D01*
X444386Y646131D01*
X444443Y646031D01*
X444496Y645929D01*
X444547Y645825D01*
X444593Y645720D01*
X444636Y645613D01*
X444675Y645505D01*
X444674Y645505D02*
X444811Y645216D01*
X444941Y644924D01*
X445064Y644628D01*
X445179Y644330D01*
X445288Y644029D01*
X445389Y643726D01*
X445483Y643420D01*
X445570Y643113D01*
X445649Y642803D01*
X445721Y642491D01*
X445785Y642178D01*
X445842Y641863D01*
X445892Y641547D01*
X445934Y641230D01*
X445968Y640912D01*
X445995Y640594D01*
X446014Y640274D01*
X446025Y639955D01*
X446029Y639635D01*
X436998Y639635D02*
X437002Y639315D01*
X437013Y638996D01*
X437032Y638676D01*
X437059Y638358D01*
X437093Y638040D01*
X437135Y637723D01*
X437185Y637407D01*
X437242Y637092D01*
X437306Y636779D01*
X437378Y636467D01*
X437457Y636157D01*
X437544Y635850D01*
X437638Y635544D01*
X437739Y635241D01*
X437848Y634940D01*
X437963Y634642D01*
X438086Y634346D01*
X438216Y634054D01*
X438353Y633765D01*
X438392Y633657D01*
X438435Y633550D01*
X438481Y633445D01*
X438532Y633341D01*
X438585Y633239D01*
X438642Y633139D01*
X438703Y633041D01*
X438767Y632946D01*
X438834Y632852D01*
X438905Y632761D01*
X438978Y632672D01*
X439055Y632586D01*
X439134Y632503D01*
X439216Y632422D01*
X439301Y632344D01*
X439389Y632270D01*
X439479Y632198D01*
X439572Y632129D01*
X439666Y632064D01*
X439763Y632002D01*
X439863Y631944D01*
X439964Y631888D01*
X440066Y631837D01*
X440171Y631789D01*
X440277Y631744D01*
X440385Y631703D01*
X440494Y631666D01*
X440604Y631633D01*
X440716Y631604D01*
X440828Y631578D01*
X440941Y631556D01*
X441055Y631539D01*
X441169Y631525D01*
X441284Y631515D01*
X441399Y631509D01*
X441514Y631507D01*
X444674Y633765D02*
X444811Y634054D01*
X444941Y634346D01*
X445064Y634642D01*
X445179Y634940D01*
X445288Y635241D01*
X445389Y635544D01*
X445483Y635850D01*
X445570Y636157D01*
X445649Y636467D01*
X445721Y636779D01*
X445785Y637092D01*
X445842Y637407D01*
X445892Y637723D01*
X445934Y638040D01*
X445968Y638358D01*
X445995Y638676D01*
X446014Y638996D01*
X446025Y639315D01*
X446029Y639635D01*
X444675Y633765D02*
X444636Y633657D01*
X444593Y633550D01*
X444547Y633445D01*
X444496Y633341D01*
X444443Y633239D01*
X444386Y633139D01*
X444325Y633041D01*
X444261Y632946D01*
X444194Y632852D01*
X444123Y632761D01*
X444050Y632672D01*
X443973Y632586D01*
X443894Y632503D01*
X443812Y632422D01*
X443727Y632344D01*
X443639Y632270D01*
X443549Y632198D01*
X443456Y632129D01*
X443362Y632064D01*
X443265Y632002D01*
X443165Y631944D01*
X443064Y631888D01*
X442961Y631837D01*
X442857Y631789D01*
X442751Y631744D01*
X442643Y631703D01*
X442534Y631666D01*
X442424Y631633D01*
X442312Y631604D01*
X442200Y631578D01*
X442087Y631556D01*
X441973Y631539D01*
X441859Y631525D01*
X441744Y631515D01*
X441629Y631509D01*
X441514Y631507D01*
X437901Y635119D02*
X445126Y644151D01*
D10*
X590000Y694500D02*
X590000Y540000D01*
X0Y540000D02*
X0Y694500D01*
X650Y675000D02*
X589350Y675000D01*
X564000Y678192D01*
X564000Y671808D01*
X589350Y675000D01*
X564000Y676300D01*
X564000Y673700D02*
X589350Y675000D01*
X564000Y677600D01*
X564000Y672400D02*
X589350Y675000D01*
X26000Y678192D02*
X650Y675000D01*
X26000Y678192D02*
X26000Y671808D01*
X650Y675000D01*
X26000Y676300D01*
X26000Y673700D02*
X650Y675000D01*
X26000Y677600D01*
X26000Y672400D02*
X650Y675000D01*
D11*
X263852Y681507D02*
X269271Y681507D01*
X269389Y681509D01*
X269507Y681515D01*
X269625Y681524D01*
X269742Y681538D01*
X269859Y681555D01*
X269976Y681576D01*
X270091Y681601D01*
X270206Y681630D01*
X270320Y681663D01*
X270432Y681699D01*
X270543Y681739D01*
X270653Y681782D01*
X270762Y681829D01*
X270869Y681879D01*
X270974Y681934D01*
X271077Y681991D01*
X271178Y682052D01*
X271278Y682116D01*
X271375Y682183D01*
X271470Y682253D01*
X271562Y682327D01*
X271653Y682403D01*
X271740Y682483D01*
X271825Y682565D01*
X271907Y682650D01*
X271987Y682737D01*
X272063Y682828D01*
X272137Y682920D01*
X272207Y683015D01*
X272274Y683112D01*
X272338Y683212D01*
X272399Y683313D01*
X272456Y683416D01*
X272511Y683521D01*
X272561Y683628D01*
X272608Y683737D01*
X272651Y683847D01*
X272691Y683958D01*
X272727Y684070D01*
X272760Y684184D01*
X272789Y684299D01*
X272814Y684414D01*
X272835Y684531D01*
X272852Y684648D01*
X272866Y684765D01*
X272875Y684883D01*
X272881Y685001D01*
X272883Y685119D01*
X272883Y686926D01*
X272881Y687044D01*
X272875Y687162D01*
X272866Y687280D01*
X272852Y687397D01*
X272835Y687514D01*
X272814Y687631D01*
X272789Y687746D01*
X272760Y687861D01*
X272727Y687975D01*
X272691Y688087D01*
X272651Y688198D01*
X272608Y688308D01*
X272561Y688417D01*
X272511Y688524D01*
X272456Y688629D01*
X272399Y688732D01*
X272338Y688833D01*
X272274Y688933D01*
X272207Y689030D01*
X272137Y689125D01*
X272063Y689217D01*
X271987Y689308D01*
X271907Y689395D01*
X271825Y689480D01*
X271740Y689562D01*
X271653Y689642D01*
X271562Y689718D01*
X271470Y689792D01*
X271375Y689862D01*
X271278Y689929D01*
X271178Y689993D01*
X271077Y690054D01*
X270974Y690111D01*
X270869Y690166D01*
X270762Y690216D01*
X270653Y690263D01*
X270543Y690306D01*
X270432Y690346D01*
X270320Y690382D01*
X270206Y690415D01*
X270091Y690444D01*
X269976Y690469D01*
X269859Y690490D01*
X269742Y690507D01*
X269625Y690521D01*
X269507Y690530D01*
X269389Y690536D01*
X269271Y690538D01*
X263852Y690538D01*
X263852Y697763D01*
X272883Y697763D01*
X283096Y688732D02*
X288514Y688732D01*
X283096Y688732D02*
X282978Y688734D01*
X282860Y688740D01*
X282742Y688749D01*
X282625Y688763D01*
X282508Y688780D01*
X282391Y688801D01*
X282276Y688826D01*
X282161Y688855D01*
X282047Y688888D01*
X281935Y688924D01*
X281824Y688964D01*
X281714Y689007D01*
X281605Y689054D01*
X281498Y689104D01*
X281393Y689159D01*
X281290Y689216D01*
X281189Y689277D01*
X281089Y689341D01*
X280992Y689408D01*
X280897Y689478D01*
X280805Y689552D01*
X280714Y689628D01*
X280627Y689708D01*
X280542Y689790D01*
X280460Y689875D01*
X280380Y689962D01*
X280304Y690053D01*
X280230Y690145D01*
X280160Y690240D01*
X280093Y690337D01*
X280029Y690437D01*
X279968Y690538D01*
X279911Y690641D01*
X279856Y690746D01*
X279806Y690853D01*
X279759Y690962D01*
X279716Y691072D01*
X279676Y691183D01*
X279640Y691295D01*
X279607Y691409D01*
X279578Y691524D01*
X279553Y691639D01*
X279532Y691756D01*
X279515Y691873D01*
X279501Y691990D01*
X279492Y692108D01*
X279486Y692226D01*
X279484Y692344D01*
X279483Y692344D02*
X279483Y693247D01*
X279485Y693380D01*
X279491Y693512D01*
X279501Y693644D01*
X279514Y693776D01*
X279532Y693908D01*
X279553Y694038D01*
X279578Y694169D01*
X279607Y694298D01*
X279640Y694426D01*
X279676Y694554D01*
X279716Y694680D01*
X279760Y694805D01*
X279808Y694929D01*
X279859Y695051D01*
X279914Y695172D01*
X279972Y695291D01*
X280034Y695409D01*
X280099Y695524D01*
X280168Y695638D01*
X280239Y695749D01*
X280315Y695858D01*
X280393Y695965D01*
X280474Y696070D01*
X280559Y696172D01*
X280646Y696272D01*
X280736Y696369D01*
X280829Y696464D01*
X280925Y696555D01*
X281023Y696644D01*
X281124Y696730D01*
X281228Y696813D01*
X281334Y696893D01*
X281442Y696969D01*
X281552Y697043D01*
X281665Y697113D01*
X281779Y697180D01*
X281896Y697243D01*
X282014Y697303D01*
X282134Y697360D01*
X282256Y697413D01*
X282379Y697462D01*
X282503Y697508D01*
X282629Y697550D01*
X282756Y697588D01*
X282884Y697623D01*
X283013Y697654D01*
X283142Y697681D01*
X283273Y697704D01*
X283404Y697724D01*
X283536Y697739D01*
X283668Y697751D01*
X283800Y697759D01*
X283933Y697763D01*
X284065Y697763D01*
X284198Y697759D01*
X284330Y697751D01*
X284462Y697739D01*
X284594Y697724D01*
X284725Y697704D01*
X284856Y697681D01*
X284985Y697654D01*
X285114Y697623D01*
X285242Y697588D01*
X285369Y697550D01*
X285495Y697508D01*
X285619Y697462D01*
X285742Y697413D01*
X285864Y697360D01*
X285984Y697303D01*
X286102Y697243D01*
X286219Y697180D01*
X286333Y697113D01*
X286446Y697043D01*
X286556Y696969D01*
X286664Y696893D01*
X286770Y696813D01*
X286874Y696730D01*
X286975Y696644D01*
X287073Y696555D01*
X287169Y696464D01*
X287262Y696369D01*
X287352Y696272D01*
X287439Y696172D01*
X287524Y696070D01*
X287605Y695965D01*
X287683Y695858D01*
X287759Y695749D01*
X287830Y695638D01*
X287899Y695524D01*
X287964Y695409D01*
X288026Y695291D01*
X288084Y695172D01*
X288139Y695051D01*
X288190Y694929D01*
X288238Y694805D01*
X288282Y694680D01*
X288322Y694554D01*
X288358Y694426D01*
X288391Y694298D01*
X288420Y694169D01*
X288445Y694038D01*
X288466Y693908D01*
X288484Y693776D01*
X288497Y693644D01*
X288507Y693512D01*
X288513Y693380D01*
X288515Y693247D01*
X288514Y693247D02*
X288514Y688732D01*
X288512Y688557D01*
X288506Y688383D01*
X288495Y688209D01*
X288480Y688035D01*
X288461Y687861D01*
X288438Y687688D01*
X288411Y687516D01*
X288379Y687344D01*
X288344Y687173D01*
X288304Y687003D01*
X288260Y686834D01*
X288212Y686666D01*
X288160Y686499D01*
X288104Y686334D01*
X288044Y686170D01*
X287981Y686007D01*
X287913Y685847D01*
X287841Y685687D01*
X287766Y685530D01*
X287686Y685374D01*
X287603Y685221D01*
X287517Y685069D01*
X287426Y684920D01*
X287332Y684773D01*
X287235Y684628D01*
X287134Y684485D01*
X287030Y684345D01*
X286922Y684208D01*
X286811Y684073D01*
X286697Y683941D01*
X286580Y683812D01*
X286459Y683685D01*
X286336Y683562D01*
X286209Y683441D01*
X286080Y683324D01*
X285948Y683210D01*
X285813Y683099D01*
X285676Y682991D01*
X285536Y682887D01*
X285393Y682786D01*
X285248Y682689D01*
X285101Y682595D01*
X284952Y682504D01*
X284800Y682418D01*
X284647Y682335D01*
X284491Y682255D01*
X284334Y682180D01*
X284174Y682108D01*
X284014Y682040D01*
X283851Y681977D01*
X283687Y681917D01*
X283522Y681861D01*
X283355Y681809D01*
X283187Y681761D01*
X283018Y681717D01*
X282848Y681677D01*
X282677Y681642D01*
X282505Y681610D01*
X282333Y681583D01*
X282160Y681560D01*
X281986Y681541D01*
X281812Y681526D01*
X281638Y681515D01*
X281464Y681509D01*
X281289Y681507D01*
X294489Y681507D02*
X294489Y682410D01*
X295392Y682410D01*
X295392Y681507D01*
X294489Y681507D01*
X301367Y689635D02*
X301371Y689955D01*
X301382Y690274D01*
X301401Y690594D01*
X301428Y690912D01*
X301462Y691230D01*
X301504Y691547D01*
X301554Y691863D01*
X301611Y692178D01*
X301675Y692491D01*
X301747Y692803D01*
X301826Y693113D01*
X301913Y693420D01*
X302007Y693726D01*
X302108Y694029D01*
X302217Y694330D01*
X302332Y694628D01*
X302455Y694924D01*
X302585Y695216D01*
X302722Y695505D01*
X302721Y695506D02*
X302760Y695614D01*
X302803Y695721D01*
X302849Y695826D01*
X302900Y695930D01*
X302953Y696032D01*
X303010Y696132D01*
X303071Y696230D01*
X303135Y696325D01*
X303202Y696419D01*
X303273Y696510D01*
X303346Y696599D01*
X303423Y696685D01*
X303502Y696768D01*
X303584Y696849D01*
X303669Y696927D01*
X303757Y697001D01*
X303847Y697073D01*
X303939Y697141D01*
X304034Y697207D01*
X304131Y697269D01*
X304230Y697327D01*
X304332Y697383D01*
X304434Y697434D01*
X304539Y697482D01*
X304645Y697527D01*
X304753Y697568D01*
X304862Y697605D01*
X304972Y697638D01*
X305084Y697667D01*
X305196Y697693D01*
X305309Y697715D01*
X305423Y697732D01*
X305537Y697746D01*
X305652Y697756D01*
X305767Y697762D01*
X305882Y697764D01*
X305882Y697763D02*
X305997Y697761D01*
X306112Y697755D01*
X306227Y697745D01*
X306341Y697731D01*
X306455Y697714D01*
X306568Y697692D01*
X306680Y697666D01*
X306792Y697637D01*
X306902Y697604D01*
X307011Y697567D01*
X307119Y697526D01*
X307225Y697481D01*
X307330Y697433D01*
X307432Y697382D01*
X307533Y697326D01*
X307633Y697268D01*
X307730Y697206D01*
X307824Y697141D01*
X307917Y697072D01*
X308007Y697000D01*
X308095Y696926D01*
X308180Y696848D01*
X308262Y696767D01*
X308341Y696684D01*
X308418Y696598D01*
X308491Y696509D01*
X308562Y696418D01*
X308629Y696324D01*
X308693Y696229D01*
X308754Y696131D01*
X308811Y696031D01*
X308864Y695929D01*
X308915Y695825D01*
X308961Y695720D01*
X309004Y695613D01*
X309043Y695505D01*
X309180Y695216D01*
X309310Y694924D01*
X309433Y694628D01*
X309548Y694330D01*
X309657Y694029D01*
X309758Y693726D01*
X309852Y693420D01*
X309939Y693113D01*
X310018Y692803D01*
X310090Y692491D01*
X310154Y692178D01*
X310211Y691863D01*
X310261Y691547D01*
X310303Y691230D01*
X310337Y690912D01*
X310364Y690594D01*
X310383Y690274D01*
X310394Y689955D01*
X310398Y689635D01*
X301367Y689635D02*
X301371Y689315D01*
X301382Y688996D01*
X301401Y688676D01*
X301428Y688358D01*
X301462Y688040D01*
X301504Y687723D01*
X301554Y687407D01*
X301611Y687092D01*
X301675Y686779D01*
X301747Y686467D01*
X301826Y686157D01*
X301913Y685850D01*
X302007Y685544D01*
X302108Y685241D01*
X302217Y684940D01*
X302332Y684642D01*
X302455Y684346D01*
X302585Y684054D01*
X302722Y683765D01*
X302721Y683765D02*
X302760Y683657D01*
X302803Y683550D01*
X302849Y683445D01*
X302900Y683341D01*
X302953Y683239D01*
X303010Y683139D01*
X303071Y683041D01*
X303135Y682946D01*
X303202Y682852D01*
X303273Y682761D01*
X303346Y682672D01*
X303423Y682586D01*
X303502Y682503D01*
X303584Y682422D01*
X303669Y682344D01*
X303757Y682270D01*
X303847Y682198D01*
X303940Y682129D01*
X304034Y682064D01*
X304131Y682002D01*
X304231Y681944D01*
X304332Y681888D01*
X304434Y681837D01*
X304539Y681789D01*
X304645Y681744D01*
X304753Y681703D01*
X304862Y681666D01*
X304972Y681633D01*
X305084Y681604D01*
X305196Y681578D01*
X305309Y681556D01*
X305423Y681539D01*
X305537Y681525D01*
X305652Y681515D01*
X305767Y681509D01*
X305882Y681507D01*
X309043Y683765D02*
X309180Y684054D01*
X309310Y684346D01*
X309433Y684642D01*
X309548Y684940D01*
X309657Y685241D01*
X309758Y685544D01*
X309852Y685850D01*
X309939Y686157D01*
X310018Y686467D01*
X310090Y686779D01*
X310154Y687092D01*
X310211Y687407D01*
X310261Y687723D01*
X310303Y688040D01*
X310337Y688358D01*
X310364Y688676D01*
X310383Y688996D01*
X310394Y689315D01*
X310398Y689635D01*
X309043Y683765D02*
X309004Y683657D01*
X308961Y683550D01*
X308915Y683445D01*
X308864Y683341D01*
X308811Y683239D01*
X308754Y683139D01*
X308693Y683041D01*
X308629Y682946D01*
X308562Y682852D01*
X308491Y682761D01*
X308418Y682672D01*
X308341Y682586D01*
X308262Y682503D01*
X308180Y682422D01*
X308095Y682344D01*
X308007Y682270D01*
X307917Y682198D01*
X307824Y682129D01*
X307730Y682064D01*
X307633Y682002D01*
X307533Y681944D01*
X307432Y681888D01*
X307329Y681837D01*
X307225Y681789D01*
X307119Y681744D01*
X307011Y681703D01*
X306902Y681666D01*
X306792Y681633D01*
X306680Y681604D01*
X306568Y681578D01*
X306455Y681556D01*
X306341Y681539D01*
X306227Y681525D01*
X306112Y681515D01*
X305997Y681509D01*
X305882Y681507D01*
X302270Y685119D02*
X309495Y694151D01*
X316998Y689635D02*
X317002Y689955D01*
X317013Y690274D01*
X317032Y690594D01*
X317059Y690912D01*
X317093Y691230D01*
X317135Y691547D01*
X317185Y691863D01*
X317242Y692178D01*
X317306Y692491D01*
X317378Y692803D01*
X317457Y693113D01*
X317544Y693420D01*
X317638Y693726D01*
X317739Y694029D01*
X317848Y694330D01*
X317963Y694628D01*
X318086Y694924D01*
X318216Y695216D01*
X318353Y695505D01*
X318353Y695506D02*
X318392Y695614D01*
X318435Y695721D01*
X318481Y695826D01*
X318532Y695930D01*
X318585Y696032D01*
X318642Y696132D01*
X318703Y696230D01*
X318767Y696325D01*
X318834Y696419D01*
X318905Y696510D01*
X318978Y696599D01*
X319055Y696685D01*
X319134Y696768D01*
X319216Y696849D01*
X319301Y696927D01*
X319389Y697001D01*
X319479Y697073D01*
X319571Y697141D01*
X319666Y697207D01*
X319763Y697269D01*
X319862Y697327D01*
X319964Y697383D01*
X320066Y697434D01*
X320171Y697482D01*
X320277Y697527D01*
X320385Y697568D01*
X320494Y697605D01*
X320604Y697638D01*
X320716Y697667D01*
X320828Y697693D01*
X320941Y697715D01*
X321055Y697732D01*
X321169Y697746D01*
X321284Y697756D01*
X321399Y697762D01*
X321514Y697764D01*
X321514Y697763D02*
X321629Y697761D01*
X321744Y697755D01*
X321859Y697745D01*
X321973Y697731D01*
X322087Y697714D01*
X322200Y697692D01*
X322312Y697666D01*
X322424Y697637D01*
X322534Y697604D01*
X322643Y697567D01*
X322751Y697526D01*
X322857Y697481D01*
X322962Y697433D01*
X323064Y697382D01*
X323165Y697326D01*
X323265Y697268D01*
X323362Y697206D01*
X323456Y697141D01*
X323549Y697072D01*
X323639Y697000D01*
X323727Y696926D01*
X323812Y696848D01*
X323894Y696767D01*
X323973Y696684D01*
X324050Y696598D01*
X324123Y696509D01*
X324194Y696418D01*
X324261Y696324D01*
X324325Y696229D01*
X324386Y696131D01*
X324443Y696031D01*
X324496Y695929D01*
X324547Y695825D01*
X324593Y695720D01*
X324636Y695613D01*
X324675Y695505D01*
X324674Y695505D02*
X324811Y695216D01*
X324941Y694924D01*
X325064Y694628D01*
X325179Y694330D01*
X325288Y694029D01*
X325389Y693726D01*
X325483Y693420D01*
X325570Y693113D01*
X325649Y692803D01*
X325721Y692491D01*
X325785Y692178D01*
X325842Y691863D01*
X325892Y691547D01*
X325934Y691230D01*
X325968Y690912D01*
X325995Y690594D01*
X326014Y690274D01*
X326025Y689955D01*
X326029Y689635D01*
X316998Y689635D02*
X317002Y689315D01*
X317013Y688996D01*
X317032Y688676D01*
X317059Y688358D01*
X317093Y688040D01*
X317135Y687723D01*
X317185Y687407D01*
X317242Y687092D01*
X317306Y686779D01*
X317378Y686467D01*
X317457Y686157D01*
X317544Y685850D01*
X317638Y685544D01*
X317739Y685241D01*
X317848Y684940D01*
X317963Y684642D01*
X318086Y684346D01*
X318216Y684054D01*
X318353Y683765D01*
X318392Y683657D01*
X318435Y683550D01*
X318481Y683445D01*
X318532Y683341D01*
X318585Y683239D01*
X318642Y683139D01*
X318703Y683041D01*
X318767Y682946D01*
X318834Y682852D01*
X318905Y682761D01*
X318978Y682672D01*
X319055Y682586D01*
X319134Y682503D01*
X319216Y682422D01*
X319301Y682344D01*
X319389Y682270D01*
X319479Y682198D01*
X319572Y682129D01*
X319666Y682064D01*
X319763Y682002D01*
X319863Y681944D01*
X319964Y681888D01*
X320066Y681837D01*
X320171Y681789D01*
X320277Y681744D01*
X320385Y681703D01*
X320494Y681666D01*
X320604Y681633D01*
X320716Y681604D01*
X320828Y681578D01*
X320941Y681556D01*
X321055Y681539D01*
X321169Y681525D01*
X321284Y681515D01*
X321399Y681509D01*
X321514Y681507D01*
X324674Y683765D02*
X324811Y684054D01*
X324941Y684346D01*
X325064Y684642D01*
X325179Y684940D01*
X325288Y685241D01*
X325389Y685544D01*
X325483Y685850D01*
X325570Y686157D01*
X325649Y686467D01*
X325721Y686779D01*
X325785Y687092D01*
X325842Y687407D01*
X325892Y687723D01*
X325934Y688040D01*
X325968Y688358D01*
X325995Y688676D01*
X326014Y688996D01*
X326025Y689315D01*
X326029Y689635D01*
X324675Y683765D02*
X324636Y683657D01*
X324593Y683550D01*
X324547Y683445D01*
X324496Y683341D01*
X324443Y683239D01*
X324386Y683139D01*
X324325Y683041D01*
X324261Y682946D01*
X324194Y682852D01*
X324123Y682761D01*
X324050Y682672D01*
X323973Y682586D01*
X323894Y682503D01*
X323812Y682422D01*
X323727Y682344D01*
X323639Y682270D01*
X323549Y682198D01*
X323456Y682129D01*
X323362Y682064D01*
X323265Y682002D01*
X323165Y681944D01*
X323064Y681888D01*
X322961Y681837D01*
X322857Y681789D01*
X322751Y681744D01*
X322643Y681703D01*
X322534Y681666D01*
X322424Y681633D01*
X322312Y681604D01*
X322200Y681578D01*
X322087Y681556D01*
X321973Y681539D01*
X321859Y681525D01*
X321744Y681515D01*
X321629Y681509D01*
X321514Y681507D01*
X317901Y685119D02*
X325126Y694151D01*
D10*
X0Y300000D02*
X0Y-54500D01*
X380000Y-54500D02*
X380000Y300000D01*
X379350Y-35000D02*
X650Y-35000D01*
X26000Y-31808D01*
X26000Y-38192D01*
X650Y-35000D01*
X26000Y-33700D01*
X26000Y-36300D02*
X650Y-35000D01*
X26000Y-32400D01*
X26000Y-37600D02*
X650Y-35000D01*
X354000Y-31808D02*
X379350Y-35000D01*
X354000Y-31808D02*
X354000Y-38192D01*
X379350Y-35000D01*
X354000Y-33700D01*
X354000Y-36300D02*
X379350Y-35000D01*
X354000Y-32400D01*
X354000Y-37600D02*
X379350Y-35000D01*
D11*
X163368Y-28493D02*
X158852Y-28493D01*
X163368Y-28493D02*
X163501Y-28491D01*
X163633Y-28485D01*
X163765Y-28475D01*
X163897Y-28462D01*
X164029Y-28444D01*
X164159Y-28423D01*
X164290Y-28398D01*
X164419Y-28369D01*
X164547Y-28336D01*
X164675Y-28300D01*
X164801Y-28260D01*
X164926Y-28216D01*
X165050Y-28168D01*
X165172Y-28117D01*
X165293Y-28062D01*
X165412Y-28004D01*
X165530Y-27942D01*
X165645Y-27877D01*
X165759Y-27808D01*
X165870Y-27737D01*
X165979Y-27661D01*
X166086Y-27583D01*
X166191Y-27502D01*
X166293Y-27417D01*
X166393Y-27330D01*
X166490Y-27240D01*
X166585Y-27147D01*
X166676Y-27051D01*
X166765Y-26953D01*
X166851Y-26852D01*
X166934Y-26748D01*
X167014Y-26642D01*
X167090Y-26534D01*
X167164Y-26424D01*
X167234Y-26311D01*
X167301Y-26197D01*
X167364Y-26080D01*
X167424Y-25962D01*
X167481Y-25842D01*
X167534Y-25720D01*
X167583Y-25597D01*
X167629Y-25473D01*
X167671Y-25347D01*
X167709Y-25220D01*
X167744Y-25092D01*
X167775Y-24963D01*
X167802Y-24834D01*
X167825Y-24703D01*
X167845Y-24572D01*
X167860Y-24440D01*
X167872Y-24308D01*
X167880Y-24176D01*
X167884Y-24043D01*
X167884Y-23911D01*
X167880Y-23778D01*
X167872Y-23646D01*
X167860Y-23514D01*
X167845Y-23382D01*
X167825Y-23251D01*
X167802Y-23120D01*
X167775Y-22991D01*
X167744Y-22862D01*
X167709Y-22734D01*
X167671Y-22607D01*
X167629Y-22481D01*
X167583Y-22357D01*
X167534Y-22234D01*
X167481Y-22112D01*
X167424Y-21992D01*
X167364Y-21874D01*
X167301Y-21757D01*
X167234Y-21643D01*
X167164Y-21530D01*
X167090Y-21420D01*
X167014Y-21312D01*
X166934Y-21206D01*
X166851Y-21102D01*
X166765Y-21001D01*
X166676Y-20903D01*
X166585Y-20807D01*
X166490Y-20714D01*
X166393Y-20624D01*
X166293Y-20537D01*
X166191Y-20452D01*
X166086Y-20371D01*
X165979Y-20293D01*
X165870Y-20217D01*
X165759Y-20146D01*
X165645Y-20077D01*
X165530Y-20012D01*
X165412Y-19950D01*
X165293Y-19892D01*
X165172Y-19837D01*
X165050Y-19786D01*
X164926Y-19738D01*
X164801Y-19694D01*
X164675Y-19654D01*
X164547Y-19618D01*
X164419Y-19585D01*
X164290Y-19556D01*
X164159Y-19531D01*
X164029Y-19510D01*
X163897Y-19492D01*
X163765Y-19479D01*
X163633Y-19469D01*
X163501Y-19463D01*
X163368Y-19461D01*
X164271Y-12237D02*
X158852Y-12237D01*
X164271Y-12237D02*
X164390Y-12239D01*
X164510Y-12245D01*
X164629Y-12255D01*
X164747Y-12269D01*
X164866Y-12286D01*
X164983Y-12308D01*
X165100Y-12333D01*
X165215Y-12363D01*
X165330Y-12396D01*
X165444Y-12433D01*
X165556Y-12473D01*
X165667Y-12518D01*
X165776Y-12566D01*
X165884Y-12617D01*
X165990Y-12672D01*
X166094Y-12731D01*
X166196Y-12793D01*
X166296Y-12858D01*
X166394Y-12927D01*
X166490Y-12999D01*
X166583Y-13074D01*
X166673Y-13151D01*
X166761Y-13232D01*
X166846Y-13316D01*
X166928Y-13403D01*
X167008Y-13492D01*
X167084Y-13584D01*
X167158Y-13678D01*
X167228Y-13775D01*
X167295Y-13873D01*
X167359Y-13974D01*
X167419Y-14078D01*
X167476Y-14183D01*
X167529Y-14290D01*
X167579Y-14398D01*
X167625Y-14508D01*
X167667Y-14620D01*
X167706Y-14733D01*
X167741Y-14847D01*
X167772Y-14962D01*
X167800Y-15079D01*
X167823Y-15196D01*
X167843Y-15313D01*
X167859Y-15432D01*
X167871Y-15551D01*
X167879Y-15670D01*
X167883Y-15789D01*
X167883Y-15909D01*
X167879Y-16028D01*
X167871Y-16147D01*
X167859Y-16266D01*
X167843Y-16385D01*
X167823Y-16502D01*
X167800Y-16619D01*
X167772Y-16736D01*
X167741Y-16851D01*
X167706Y-16965D01*
X167667Y-17078D01*
X167625Y-17190D01*
X167579Y-17300D01*
X167529Y-17408D01*
X167476Y-17515D01*
X167419Y-17620D01*
X167359Y-17724D01*
X167295Y-17825D01*
X167228Y-17923D01*
X167158Y-18020D01*
X167084Y-18114D01*
X167008Y-18206D01*
X166928Y-18295D01*
X166846Y-18382D01*
X166761Y-18466D01*
X166673Y-18547D01*
X166583Y-18624D01*
X166490Y-18699D01*
X166394Y-18771D01*
X166296Y-18840D01*
X166196Y-18905D01*
X166094Y-18967D01*
X165990Y-19026D01*
X165884Y-19081D01*
X165776Y-19132D01*
X165667Y-19180D01*
X165556Y-19225D01*
X165444Y-19265D01*
X165330Y-19302D01*
X165215Y-19335D01*
X165100Y-19365D01*
X164983Y-19390D01*
X164866Y-19412D01*
X164747Y-19429D01*
X164629Y-19443D01*
X164510Y-19453D01*
X164390Y-19459D01*
X164271Y-19461D01*
X164271Y-19462D02*
X160658Y-19462D01*
X174483Y-23977D02*
X174485Y-23844D01*
X174491Y-23712D01*
X174501Y-23580D01*
X174514Y-23448D01*
X174532Y-23316D01*
X174553Y-23186D01*
X174578Y-23055D01*
X174607Y-22926D01*
X174640Y-22798D01*
X174676Y-22670D01*
X174716Y-22544D01*
X174760Y-22419D01*
X174808Y-22295D01*
X174859Y-22173D01*
X174914Y-22052D01*
X174972Y-21933D01*
X175034Y-21815D01*
X175099Y-21700D01*
X175168Y-21586D01*
X175239Y-21475D01*
X175315Y-21366D01*
X175393Y-21259D01*
X175474Y-21154D01*
X175559Y-21052D01*
X175646Y-20952D01*
X175736Y-20855D01*
X175829Y-20760D01*
X175925Y-20669D01*
X176023Y-20580D01*
X176124Y-20494D01*
X176228Y-20411D01*
X176334Y-20331D01*
X176442Y-20255D01*
X176552Y-20181D01*
X176665Y-20111D01*
X176779Y-20044D01*
X176896Y-19981D01*
X177014Y-19921D01*
X177134Y-19864D01*
X177256Y-19811D01*
X177379Y-19762D01*
X177503Y-19716D01*
X177629Y-19674D01*
X177756Y-19636D01*
X177884Y-19601D01*
X178013Y-19570D01*
X178142Y-19543D01*
X178273Y-19520D01*
X178404Y-19500D01*
X178536Y-19485D01*
X178668Y-19473D01*
X178800Y-19465D01*
X178933Y-19461D01*
X179065Y-19461D01*
X179198Y-19465D01*
X179330Y-19473D01*
X179462Y-19485D01*
X179594Y-19500D01*
X179725Y-19520D01*
X179856Y-19543D01*
X179985Y-19570D01*
X180114Y-19601D01*
X180242Y-19636D01*
X180369Y-19674D01*
X180495Y-19716D01*
X180619Y-19762D01*
X180742Y-19811D01*
X180864Y-19864D01*
X180984Y-19921D01*
X181102Y-19981D01*
X181219Y-20044D01*
X181333Y-20111D01*
X181446Y-20181D01*
X181556Y-20255D01*
X181664Y-20331D01*
X181770Y-20411D01*
X181874Y-20494D01*
X181975Y-20580D01*
X182073Y-20669D01*
X182169Y-20760D01*
X182262Y-20855D01*
X182352Y-20952D01*
X182439Y-21052D01*
X182524Y-21154D01*
X182605Y-21259D01*
X182683Y-21366D01*
X182759Y-21475D01*
X182830Y-21586D01*
X182899Y-21700D01*
X182964Y-21815D01*
X183026Y-21933D01*
X183084Y-22052D01*
X183139Y-22173D01*
X183190Y-22295D01*
X183238Y-22419D01*
X183282Y-22544D01*
X183322Y-22670D01*
X183358Y-22798D01*
X183391Y-22926D01*
X183420Y-23055D01*
X183445Y-23186D01*
X183466Y-23316D01*
X183484Y-23448D01*
X183497Y-23580D01*
X183507Y-23712D01*
X183513Y-23844D01*
X183515Y-23977D01*
X183513Y-24110D01*
X183507Y-24242D01*
X183497Y-24374D01*
X183484Y-24506D01*
X183466Y-24638D01*
X183445Y-24768D01*
X183420Y-24899D01*
X183391Y-25028D01*
X183358Y-25156D01*
X183322Y-25284D01*
X183282Y-25410D01*
X183238Y-25535D01*
X183190Y-25659D01*
X183139Y-25781D01*
X183084Y-25902D01*
X183026Y-26021D01*
X182964Y-26139D01*
X182899Y-26254D01*
X182830Y-26368D01*
X182759Y-26479D01*
X182683Y-26588D01*
X182605Y-26695D01*
X182524Y-26800D01*
X182439Y-26902D01*
X182352Y-27002D01*
X182262Y-27099D01*
X182169Y-27194D01*
X182073Y-27285D01*
X181975Y-27374D01*
X181874Y-27460D01*
X181770Y-27543D01*
X181664Y-27623D01*
X181556Y-27699D01*
X181446Y-27773D01*
X181333Y-27843D01*
X181219Y-27910D01*
X181102Y-27973D01*
X180984Y-28033D01*
X180864Y-28090D01*
X180742Y-28143D01*
X180619Y-28192D01*
X180495Y-28238D01*
X180369Y-28280D01*
X180242Y-28318D01*
X180114Y-28353D01*
X179985Y-28384D01*
X179856Y-28411D01*
X179725Y-28434D01*
X179594Y-28454D01*
X179462Y-28469D01*
X179330Y-28481D01*
X179198Y-28489D01*
X179065Y-28493D01*
X178933Y-28493D01*
X178800Y-28489D01*
X178668Y-28481D01*
X178536Y-28469D01*
X178404Y-28454D01*
X178273Y-28434D01*
X178142Y-28411D01*
X178013Y-28384D01*
X177884Y-28353D01*
X177756Y-28318D01*
X177629Y-28280D01*
X177503Y-28238D01*
X177379Y-28192D01*
X177256Y-28143D01*
X177134Y-28090D01*
X177014Y-28033D01*
X176896Y-27973D01*
X176779Y-27910D01*
X176665Y-27843D01*
X176552Y-27773D01*
X176442Y-27699D01*
X176334Y-27623D01*
X176228Y-27543D01*
X176124Y-27460D01*
X176023Y-27374D01*
X175925Y-27285D01*
X175829Y-27194D01*
X175736Y-27099D01*
X175646Y-27002D01*
X175559Y-26902D01*
X175474Y-26800D01*
X175393Y-26695D01*
X175315Y-26588D01*
X175239Y-26479D01*
X175168Y-26368D01*
X175099Y-26254D01*
X175034Y-26139D01*
X174972Y-26021D01*
X174914Y-25902D01*
X174859Y-25781D01*
X174808Y-25659D01*
X174760Y-25535D01*
X174716Y-25410D01*
X174676Y-25284D01*
X174640Y-25156D01*
X174607Y-25028D01*
X174578Y-24899D01*
X174553Y-24768D01*
X174532Y-24638D01*
X174514Y-24506D01*
X174501Y-24374D01*
X174491Y-24242D01*
X174485Y-24110D01*
X174483Y-23977D01*
X175387Y-15849D02*
X175389Y-15730D01*
X175395Y-15610D01*
X175405Y-15491D01*
X175419Y-15373D01*
X175436Y-15254D01*
X175458Y-15137D01*
X175483Y-15020D01*
X175513Y-14905D01*
X175546Y-14790D01*
X175583Y-14676D01*
X175623Y-14564D01*
X175668Y-14453D01*
X175716Y-14344D01*
X175767Y-14236D01*
X175822Y-14130D01*
X175881Y-14026D01*
X175943Y-13924D01*
X176008Y-13824D01*
X176077Y-13726D01*
X176149Y-13630D01*
X176224Y-13537D01*
X176301Y-13447D01*
X176382Y-13359D01*
X176466Y-13274D01*
X176553Y-13192D01*
X176642Y-13112D01*
X176734Y-13036D01*
X176828Y-12962D01*
X176925Y-12892D01*
X177023Y-12825D01*
X177124Y-12761D01*
X177228Y-12701D01*
X177333Y-12644D01*
X177440Y-12591D01*
X177548Y-12541D01*
X177658Y-12495D01*
X177770Y-12453D01*
X177883Y-12414D01*
X177997Y-12379D01*
X178112Y-12348D01*
X178229Y-12320D01*
X178346Y-12297D01*
X178463Y-12277D01*
X178582Y-12261D01*
X178701Y-12249D01*
X178820Y-12241D01*
X178939Y-12237D01*
X179059Y-12237D01*
X179178Y-12241D01*
X179297Y-12249D01*
X179416Y-12261D01*
X179535Y-12277D01*
X179652Y-12297D01*
X179769Y-12320D01*
X179886Y-12348D01*
X180001Y-12379D01*
X180115Y-12414D01*
X180228Y-12453D01*
X180340Y-12495D01*
X180450Y-12541D01*
X180558Y-12591D01*
X180665Y-12644D01*
X180770Y-12701D01*
X180874Y-12761D01*
X180975Y-12825D01*
X181073Y-12892D01*
X181170Y-12962D01*
X181264Y-13036D01*
X181356Y-13112D01*
X181445Y-13192D01*
X181532Y-13274D01*
X181616Y-13359D01*
X181697Y-13447D01*
X181774Y-13537D01*
X181849Y-13630D01*
X181921Y-13726D01*
X181990Y-13824D01*
X182055Y-13924D01*
X182117Y-14026D01*
X182176Y-14130D01*
X182231Y-14236D01*
X182282Y-14344D01*
X182330Y-14453D01*
X182375Y-14564D01*
X182415Y-14676D01*
X182452Y-14790D01*
X182485Y-14905D01*
X182515Y-15020D01*
X182540Y-15137D01*
X182562Y-15254D01*
X182579Y-15373D01*
X182593Y-15491D01*
X182603Y-15610D01*
X182609Y-15730D01*
X182611Y-15849D01*
X182609Y-15968D01*
X182603Y-16088D01*
X182593Y-16207D01*
X182579Y-16325D01*
X182562Y-16444D01*
X182540Y-16561D01*
X182515Y-16678D01*
X182485Y-16793D01*
X182452Y-16908D01*
X182415Y-17022D01*
X182375Y-17134D01*
X182330Y-17245D01*
X182282Y-17354D01*
X182231Y-17462D01*
X182176Y-17568D01*
X182117Y-17672D01*
X182055Y-17774D01*
X181990Y-17874D01*
X181921Y-17972D01*
X181849Y-18068D01*
X181774Y-18161D01*
X181697Y-18251D01*
X181616Y-18339D01*
X181532Y-18424D01*
X181445Y-18506D01*
X181356Y-18586D01*
X181264Y-18662D01*
X181170Y-18736D01*
X181073Y-18806D01*
X180975Y-18873D01*
X180874Y-18937D01*
X180770Y-18997D01*
X180665Y-19054D01*
X180558Y-19107D01*
X180450Y-19157D01*
X180340Y-19203D01*
X180228Y-19245D01*
X180115Y-19284D01*
X180001Y-19319D01*
X179886Y-19350D01*
X179769Y-19378D01*
X179652Y-19401D01*
X179535Y-19421D01*
X179416Y-19437D01*
X179297Y-19449D01*
X179178Y-19457D01*
X179059Y-19461D01*
X178939Y-19461D01*
X178820Y-19457D01*
X178701Y-19449D01*
X178582Y-19437D01*
X178463Y-19421D01*
X178346Y-19401D01*
X178229Y-19378D01*
X178112Y-19350D01*
X177997Y-19319D01*
X177883Y-19284D01*
X177770Y-19245D01*
X177658Y-19203D01*
X177548Y-19157D01*
X177440Y-19107D01*
X177333Y-19054D01*
X177228Y-18997D01*
X177124Y-18937D01*
X177023Y-18873D01*
X176925Y-18806D01*
X176828Y-18736D01*
X176734Y-18662D01*
X176642Y-18586D01*
X176553Y-18506D01*
X176466Y-18424D01*
X176382Y-18339D01*
X176301Y-18251D01*
X176224Y-18161D01*
X176149Y-18068D01*
X176077Y-17972D01*
X176008Y-17874D01*
X175943Y-17774D01*
X175881Y-17672D01*
X175822Y-17568D01*
X175767Y-17462D01*
X175716Y-17354D01*
X175668Y-17245D01*
X175623Y-17134D01*
X175583Y-17022D01*
X175546Y-16908D01*
X175513Y-16793D01*
X175483Y-16678D01*
X175458Y-16561D01*
X175436Y-16444D01*
X175419Y-16325D01*
X175405Y-16207D01*
X175395Y-16088D01*
X175389Y-15968D01*
X175387Y-15849D01*
X189489Y-27590D02*
X189489Y-28493D01*
X189489Y-27590D02*
X190392Y-27590D01*
X190392Y-28493D01*
X189489Y-28493D01*
X196367Y-20365D02*
X196371Y-20045D01*
X196382Y-19726D01*
X196401Y-19406D01*
X196428Y-19088D01*
X196462Y-18770D01*
X196504Y-18453D01*
X196554Y-18137D01*
X196611Y-17822D01*
X196675Y-17509D01*
X196747Y-17197D01*
X196826Y-16887D01*
X196913Y-16580D01*
X197007Y-16274D01*
X197108Y-15971D01*
X197217Y-15670D01*
X197332Y-15372D01*
X197455Y-15076D01*
X197585Y-14784D01*
X197722Y-14495D01*
X197722Y-14494D02*
X197761Y-14386D01*
X197804Y-14279D01*
X197850Y-14174D01*
X197900Y-14071D01*
X197954Y-13969D01*
X198011Y-13869D01*
X198072Y-13771D01*
X198136Y-13675D01*
X198203Y-13582D01*
X198273Y-13491D01*
X198347Y-13402D01*
X198423Y-13316D01*
X198503Y-13233D01*
X198585Y-13152D01*
X198670Y-13074D01*
X198757Y-13000D01*
X198848Y-12928D01*
X198940Y-12859D01*
X199035Y-12794D01*
X199132Y-12732D01*
X199231Y-12673D01*
X199332Y-12618D01*
X199435Y-12567D01*
X199540Y-12519D01*
X199646Y-12474D01*
X199753Y-12433D01*
X199862Y-12396D01*
X199973Y-12363D01*
X200084Y-12334D01*
X200196Y-12308D01*
X200309Y-12286D01*
X200423Y-12269D01*
X200537Y-12255D01*
X200652Y-12245D01*
X200767Y-12239D01*
X200882Y-12237D01*
X200997Y-12239D01*
X201112Y-12245D01*
X201227Y-12255D01*
X201341Y-12269D01*
X201455Y-12286D01*
X201568Y-12308D01*
X201680Y-12334D01*
X201792Y-12363D01*
X201902Y-12396D01*
X202011Y-12433D01*
X202119Y-12474D01*
X202225Y-12519D01*
X202330Y-12567D01*
X202432Y-12618D01*
X202534Y-12674D01*
X202633Y-12732D01*
X202730Y-12794D01*
X202825Y-12860D01*
X202917Y-12928D01*
X203007Y-13000D01*
X203095Y-13074D01*
X203180Y-13152D01*
X203262Y-13233D01*
X203341Y-13316D01*
X203418Y-13402D01*
X203491Y-13491D01*
X203562Y-13582D01*
X203629Y-13676D01*
X203693Y-13771D01*
X203754Y-13869D01*
X203811Y-13969D01*
X203864Y-14071D01*
X203915Y-14175D01*
X203961Y-14280D01*
X204004Y-14387D01*
X204043Y-14495D01*
X204180Y-14784D01*
X204310Y-15076D01*
X204433Y-15372D01*
X204548Y-15670D01*
X204657Y-15971D01*
X204758Y-16274D01*
X204852Y-16580D01*
X204939Y-16887D01*
X205018Y-17197D01*
X205090Y-17509D01*
X205154Y-17822D01*
X205211Y-18137D01*
X205261Y-18453D01*
X205303Y-18770D01*
X205337Y-19088D01*
X205364Y-19406D01*
X205383Y-19726D01*
X205394Y-20045D01*
X205398Y-20365D01*
X196367Y-20365D02*
X196371Y-20685D01*
X196382Y-21004D01*
X196401Y-21324D01*
X196428Y-21642D01*
X196462Y-21960D01*
X196504Y-22277D01*
X196554Y-22593D01*
X196611Y-22908D01*
X196675Y-23221D01*
X196747Y-23533D01*
X196826Y-23843D01*
X196913Y-24150D01*
X197007Y-24456D01*
X197108Y-24759D01*
X197217Y-25060D01*
X197332Y-25358D01*
X197455Y-25654D01*
X197585Y-25946D01*
X197722Y-26235D01*
X197721Y-26236D02*
X197760Y-26344D01*
X197803Y-26451D01*
X197849Y-26556D01*
X197900Y-26660D01*
X197953Y-26762D01*
X198010Y-26862D01*
X198071Y-26960D01*
X198135Y-27055D01*
X198202Y-27149D01*
X198273Y-27240D01*
X198346Y-27329D01*
X198423Y-27415D01*
X198502Y-27498D01*
X198584Y-27579D01*
X198669Y-27657D01*
X198757Y-27731D01*
X198847Y-27803D01*
X198940Y-27872D01*
X199034Y-27937D01*
X199131Y-27999D01*
X199231Y-28057D01*
X199332Y-28113D01*
X199434Y-28164D01*
X199539Y-28212D01*
X199645Y-28257D01*
X199753Y-28298D01*
X199862Y-28335D01*
X199972Y-28368D01*
X200084Y-28397D01*
X200196Y-28423D01*
X200309Y-28445D01*
X200423Y-28462D01*
X200537Y-28476D01*
X200652Y-28486D01*
X200767Y-28492D01*
X200882Y-28494D01*
X204043Y-26235D02*
X204180Y-25946D01*
X204310Y-25654D01*
X204433Y-25358D01*
X204548Y-25060D01*
X204657Y-24759D01*
X204758Y-24456D01*
X204852Y-24150D01*
X204939Y-23843D01*
X205018Y-23533D01*
X205090Y-23221D01*
X205154Y-22908D01*
X205211Y-22593D01*
X205261Y-22277D01*
X205303Y-21960D01*
X205337Y-21642D01*
X205364Y-21324D01*
X205383Y-21004D01*
X205394Y-20685D01*
X205398Y-20365D01*
X204043Y-26235D02*
X204004Y-26343D01*
X203961Y-26450D01*
X203915Y-26555D01*
X203864Y-26659D01*
X203811Y-26761D01*
X203754Y-26861D01*
X203693Y-26959D01*
X203629Y-27054D01*
X203562Y-27148D01*
X203491Y-27239D01*
X203418Y-27328D01*
X203341Y-27414D01*
X203262Y-27497D01*
X203180Y-27578D01*
X203095Y-27656D01*
X203007Y-27730D01*
X202917Y-27802D01*
X202824Y-27871D01*
X202730Y-27936D01*
X202633Y-27998D01*
X202533Y-28056D01*
X202432Y-28112D01*
X202329Y-28163D01*
X202225Y-28211D01*
X202119Y-28256D01*
X202011Y-28297D01*
X201902Y-28334D01*
X201792Y-28367D01*
X201680Y-28396D01*
X201568Y-28422D01*
X201455Y-28444D01*
X201341Y-28461D01*
X201227Y-28475D01*
X201112Y-28485D01*
X200997Y-28491D01*
X200882Y-28493D01*
X197270Y-24881D02*
X204495Y-15849D01*
X211998Y-20365D02*
X212002Y-20045D01*
X212013Y-19726D01*
X212032Y-19406D01*
X212059Y-19088D01*
X212093Y-18770D01*
X212135Y-18453D01*
X212185Y-18137D01*
X212242Y-17822D01*
X212306Y-17509D01*
X212378Y-17197D01*
X212457Y-16887D01*
X212544Y-16580D01*
X212638Y-16274D01*
X212739Y-15971D01*
X212848Y-15670D01*
X212963Y-15372D01*
X213086Y-15076D01*
X213216Y-14784D01*
X213353Y-14495D01*
X213354Y-14494D02*
X213393Y-14386D01*
X213436Y-14279D01*
X213482Y-14174D01*
X213532Y-14071D01*
X213586Y-13969D01*
X213643Y-13869D01*
X213704Y-13771D01*
X213768Y-13675D01*
X213835Y-13582D01*
X213905Y-13491D01*
X213979Y-13402D01*
X214055Y-13316D01*
X214135Y-13233D01*
X214217Y-13152D01*
X214302Y-13074D01*
X214389Y-13000D01*
X214480Y-12928D01*
X214572Y-12859D01*
X214667Y-12794D01*
X214764Y-12732D01*
X214863Y-12673D01*
X214964Y-12618D01*
X215067Y-12567D01*
X215172Y-12519D01*
X215278Y-12474D01*
X215385Y-12433D01*
X215494Y-12396D01*
X215605Y-12363D01*
X215716Y-12334D01*
X215828Y-12308D01*
X215941Y-12286D01*
X216055Y-12269D01*
X216169Y-12255D01*
X216284Y-12245D01*
X216399Y-12239D01*
X216514Y-12237D01*
X216629Y-12239D01*
X216744Y-12245D01*
X216859Y-12255D01*
X216973Y-12269D01*
X217087Y-12286D01*
X217200Y-12308D01*
X217312Y-12334D01*
X217424Y-12363D01*
X217534Y-12396D01*
X217643Y-12433D01*
X217751Y-12474D01*
X217857Y-12519D01*
X217962Y-12567D01*
X218064Y-12618D01*
X218166Y-12674D01*
X218265Y-12732D01*
X218362Y-12794D01*
X218457Y-12860D01*
X218549Y-12928D01*
X218639Y-13000D01*
X218727Y-13074D01*
X218812Y-13152D01*
X218894Y-13233D01*
X218973Y-13316D01*
X219050Y-13402D01*
X219123Y-13491D01*
X219194Y-13582D01*
X219261Y-13676D01*
X219325Y-13771D01*
X219386Y-13869D01*
X219443Y-13969D01*
X219496Y-14071D01*
X219547Y-14175D01*
X219593Y-14280D01*
X219636Y-14387D01*
X219675Y-14495D01*
X219674Y-14495D02*
X219811Y-14784D01*
X219941Y-15076D01*
X220064Y-15372D01*
X220179Y-15670D01*
X220288Y-15971D01*
X220389Y-16274D01*
X220483Y-16580D01*
X220570Y-16887D01*
X220649Y-17197D01*
X220721Y-17509D01*
X220785Y-17822D01*
X220842Y-18137D01*
X220892Y-18453D01*
X220934Y-18770D01*
X220968Y-19088D01*
X220995Y-19406D01*
X221014Y-19726D01*
X221025Y-20045D01*
X221029Y-20365D01*
X211998Y-20365D02*
X212002Y-20685D01*
X212013Y-21004D01*
X212032Y-21324D01*
X212059Y-21642D01*
X212093Y-21960D01*
X212135Y-22277D01*
X212185Y-22593D01*
X212242Y-22908D01*
X212306Y-23221D01*
X212378Y-23533D01*
X212457Y-23843D01*
X212544Y-24150D01*
X212638Y-24456D01*
X212739Y-24759D01*
X212848Y-25060D01*
X212963Y-25358D01*
X213086Y-25654D01*
X213216Y-25946D01*
X213353Y-26235D01*
X213353Y-26236D02*
X213392Y-26344D01*
X213435Y-26451D01*
X213481Y-26556D01*
X213532Y-26660D01*
X213585Y-26762D01*
X213642Y-26862D01*
X213703Y-26960D01*
X213767Y-27055D01*
X213834Y-27149D01*
X213905Y-27240D01*
X213978Y-27329D01*
X214055Y-27415D01*
X214134Y-27498D01*
X214216Y-27579D01*
X214301Y-27657D01*
X214389Y-27731D01*
X214479Y-27803D01*
X214572Y-27872D01*
X214666Y-27937D01*
X214763Y-27999D01*
X214863Y-28057D01*
X214964Y-28113D01*
X215066Y-28164D01*
X215171Y-28212D01*
X215277Y-28257D01*
X215385Y-28298D01*
X215494Y-28335D01*
X215604Y-28368D01*
X215716Y-28397D01*
X215828Y-28423D01*
X215941Y-28445D01*
X216055Y-28462D01*
X216169Y-28476D01*
X216284Y-28486D01*
X216399Y-28492D01*
X216514Y-28494D01*
X219674Y-26235D02*
X219811Y-25946D01*
X219941Y-25654D01*
X220064Y-25358D01*
X220179Y-25060D01*
X220288Y-24759D01*
X220389Y-24456D01*
X220483Y-24150D01*
X220570Y-23843D01*
X220649Y-23533D01*
X220721Y-23221D01*
X220785Y-22908D01*
X220842Y-22593D01*
X220892Y-22277D01*
X220934Y-21960D01*
X220968Y-21642D01*
X220995Y-21324D01*
X221014Y-21004D01*
X221025Y-20685D01*
X221029Y-20365D01*
X219675Y-26235D02*
X219636Y-26343D01*
X219593Y-26450D01*
X219547Y-26555D01*
X219496Y-26659D01*
X219443Y-26761D01*
X219386Y-26861D01*
X219325Y-26959D01*
X219261Y-27054D01*
X219194Y-27148D01*
X219123Y-27239D01*
X219050Y-27328D01*
X218973Y-27414D01*
X218894Y-27497D01*
X218812Y-27578D01*
X218727Y-27656D01*
X218639Y-27730D01*
X218549Y-27802D01*
X218456Y-27871D01*
X218362Y-27936D01*
X218265Y-27998D01*
X218165Y-28056D01*
X218064Y-28112D01*
X217961Y-28163D01*
X217857Y-28211D01*
X217751Y-28256D01*
X217643Y-28297D01*
X217534Y-28334D01*
X217424Y-28367D01*
X217312Y-28396D01*
X217200Y-28422D01*
X217087Y-28444D01*
X216973Y-28461D01*
X216859Y-28475D01*
X216744Y-28485D01*
X216629Y-28491D01*
X216514Y-28493D01*
X212901Y-24881D02*
X220126Y-15849D01*
D10*
X380000Y-54500D02*
X380000Y300000D01*
X590000Y300000D02*
X590000Y-54500D01*
X589350Y-35000D02*
X380650Y-35000D01*
X406000Y-31808D01*
X406000Y-38192D01*
X380650Y-35000D01*
X406000Y-33700D01*
X406000Y-36300D02*
X380650Y-35000D01*
X406000Y-32400D01*
X406000Y-37600D02*
X380650Y-35000D01*
X564000Y-31808D02*
X589350Y-35000D01*
X564000Y-31808D02*
X564000Y-38192D01*
X589350Y-35000D01*
X564000Y-33700D01*
X564000Y-36300D02*
X589350Y-35000D01*
X564000Y-32400D01*
X564000Y-37600D02*
X589350Y-35000D01*
D11*
X462883Y-16301D02*
X462881Y-16176D01*
X462875Y-16051D01*
X462866Y-15926D01*
X462852Y-15802D01*
X462835Y-15678D01*
X462814Y-15554D01*
X462789Y-15432D01*
X462760Y-15310D01*
X462728Y-15189D01*
X462692Y-15069D01*
X462652Y-14950D01*
X462609Y-14833D01*
X462562Y-14717D01*
X462511Y-14602D01*
X462457Y-14490D01*
X462399Y-14378D01*
X462339Y-14269D01*
X462274Y-14162D01*
X462207Y-14056D01*
X462136Y-13953D01*
X462062Y-13852D01*
X461985Y-13753D01*
X461905Y-13657D01*
X461822Y-13563D01*
X461737Y-13472D01*
X461648Y-13383D01*
X461557Y-13298D01*
X461463Y-13215D01*
X461367Y-13135D01*
X461268Y-13058D01*
X461167Y-12984D01*
X461064Y-12913D01*
X460958Y-12846D01*
X460851Y-12781D01*
X460742Y-12721D01*
X460630Y-12663D01*
X460518Y-12609D01*
X460403Y-12558D01*
X460287Y-12511D01*
X460170Y-12468D01*
X460051Y-12428D01*
X459931Y-12392D01*
X459810Y-12360D01*
X459688Y-12331D01*
X459566Y-12306D01*
X459442Y-12285D01*
X459318Y-12268D01*
X459194Y-12254D01*
X459069Y-12245D01*
X458944Y-12239D01*
X458819Y-12237D01*
X458676Y-12239D01*
X458534Y-12245D01*
X458391Y-12255D01*
X458249Y-12268D01*
X458108Y-12286D01*
X457966Y-12307D01*
X457826Y-12332D01*
X457686Y-12361D01*
X457547Y-12394D01*
X457409Y-12431D01*
X457272Y-12471D01*
X457137Y-12515D01*
X457002Y-12563D01*
X456869Y-12615D01*
X456737Y-12670D01*
X456607Y-12729D01*
X456479Y-12791D01*
X456352Y-12857D01*
X456227Y-12926D01*
X456104Y-12998D01*
X455983Y-13074D01*
X455865Y-13153D01*
X455748Y-13236D01*
X455634Y-13321D01*
X455522Y-13410D01*
X455413Y-13501D01*
X455306Y-13596D01*
X455201Y-13693D01*
X455100Y-13794D01*
X455001Y-13897D01*
X454905Y-14002D01*
X454812Y-14111D01*
X454722Y-14222D01*
X454635Y-14335D01*
X454551Y-14450D01*
X454471Y-14568D01*
X454393Y-14688D01*
X454319Y-14810D01*
X454249Y-14934D01*
X454181Y-15060D01*
X454118Y-15188D01*
X454057Y-15317D01*
X454000Y-15448D01*
X453947Y-15580D01*
X453898Y-15714D01*
X453852Y-15849D01*
X461528Y-19462D02*
X461622Y-19370D01*
X461712Y-19276D01*
X461800Y-19179D01*
X461885Y-19079D01*
X461967Y-18977D01*
X462045Y-18872D01*
X462121Y-18765D01*
X462193Y-18656D01*
X462262Y-18545D01*
X462328Y-18431D01*
X462390Y-18316D01*
X462449Y-18199D01*
X462504Y-18080D01*
X462555Y-17960D01*
X462603Y-17838D01*
X462648Y-17715D01*
X462688Y-17591D01*
X462725Y-17465D01*
X462758Y-17338D01*
X462787Y-17211D01*
X462813Y-17082D01*
X462834Y-16953D01*
X462852Y-16823D01*
X462865Y-16693D01*
X462875Y-16563D01*
X462881Y-16432D01*
X462883Y-16301D01*
X461528Y-19462D02*
X453852Y-28493D01*
X462883Y-28493D01*
X469483Y-15849D02*
X473999Y-12237D01*
X473999Y-28493D01*
X478514Y-28493D02*
X469483Y-28493D01*
X484489Y-28493D02*
X484489Y-27590D01*
X485392Y-27590D01*
X485392Y-28493D01*
X484489Y-28493D01*
X491367Y-20365D02*
X491371Y-20045D01*
X491382Y-19726D01*
X491401Y-19406D01*
X491428Y-19088D01*
X491462Y-18770D01*
X491504Y-18453D01*
X491554Y-18137D01*
X491611Y-17822D01*
X491675Y-17509D01*
X491747Y-17197D01*
X491826Y-16887D01*
X491913Y-16580D01*
X492007Y-16274D01*
X492108Y-15971D01*
X492217Y-15670D01*
X492332Y-15372D01*
X492455Y-15076D01*
X492585Y-14784D01*
X492722Y-14495D01*
X492722Y-14494D02*
X492761Y-14386D01*
X492804Y-14279D01*
X492850Y-14174D01*
X492900Y-14071D01*
X492954Y-13969D01*
X493011Y-13869D01*
X493072Y-13771D01*
X493136Y-13675D01*
X493203Y-13582D01*
X493273Y-13491D01*
X493347Y-13402D01*
X493423Y-13316D01*
X493503Y-13233D01*
X493585Y-13152D01*
X493670Y-13074D01*
X493757Y-13000D01*
X493848Y-12928D01*
X493940Y-12859D01*
X494035Y-12794D01*
X494132Y-12732D01*
X494231Y-12673D01*
X494332Y-12618D01*
X494435Y-12567D01*
X494540Y-12519D01*
X494646Y-12474D01*
X494753Y-12433D01*
X494862Y-12396D01*
X494973Y-12363D01*
X495084Y-12334D01*
X495196Y-12308D01*
X495309Y-12286D01*
X495423Y-12269D01*
X495537Y-12255D01*
X495652Y-12245D01*
X495767Y-12239D01*
X495882Y-12237D01*
X495997Y-12239D01*
X496112Y-12245D01*
X496227Y-12255D01*
X496341Y-12269D01*
X496455Y-12286D01*
X496568Y-12308D01*
X496680Y-12334D01*
X496792Y-12363D01*
X496902Y-12396D01*
X497011Y-12433D01*
X497119Y-12474D01*
X497225Y-12519D01*
X497330Y-12567D01*
X497432Y-12618D01*
X497534Y-12674D01*
X497633Y-12732D01*
X497730Y-12794D01*
X497825Y-12860D01*
X497917Y-12928D01*
X498007Y-13000D01*
X498095Y-13074D01*
X498180Y-13152D01*
X498262Y-13233D01*
X498341Y-13316D01*
X498418Y-13402D01*
X498491Y-13491D01*
X498562Y-13582D01*
X498629Y-13676D01*
X498693Y-13771D01*
X498754Y-13869D01*
X498811Y-13969D01*
X498864Y-14071D01*
X498915Y-14175D01*
X498961Y-14280D01*
X499004Y-14387D01*
X499043Y-14495D01*
X499180Y-14784D01*
X499310Y-15076D01*
X499433Y-15372D01*
X499548Y-15670D01*
X499657Y-15971D01*
X499758Y-16274D01*
X499852Y-16580D01*
X499939Y-16887D01*
X500018Y-17197D01*
X500090Y-17509D01*
X500154Y-17822D01*
X500211Y-18137D01*
X500261Y-18453D01*
X500303Y-18770D01*
X500337Y-19088D01*
X500364Y-19406D01*
X500383Y-19726D01*
X500394Y-20045D01*
X500398Y-20365D01*
X491367Y-20365D02*
X491371Y-20685D01*
X491382Y-21004D01*
X491401Y-21324D01*
X491428Y-21642D01*
X491462Y-21960D01*
X491504Y-22277D01*
X491554Y-22593D01*
X491611Y-22908D01*
X491675Y-23221D01*
X491747Y-23533D01*
X491826Y-23843D01*
X491913Y-24150D01*
X492007Y-24456D01*
X492108Y-24759D01*
X492217Y-25060D01*
X492332Y-25358D01*
X492455Y-25654D01*
X492585Y-25946D01*
X492722Y-26235D01*
X492721Y-26236D02*
X492760Y-26344D01*
X492803Y-26451D01*
X492849Y-26556D01*
X492900Y-26660D01*
X492953Y-26762D01*
X493010Y-26862D01*
X493071Y-26960D01*
X493135Y-27055D01*
X493202Y-27149D01*
X493273Y-27240D01*
X493346Y-27329D01*
X493423Y-27415D01*
X493502Y-27498D01*
X493584Y-27579D01*
X493669Y-27657D01*
X493757Y-27731D01*
X493847Y-27803D01*
X493940Y-27872D01*
X494034Y-27937D01*
X494131Y-27999D01*
X494231Y-28057D01*
X494332Y-28113D01*
X494434Y-28164D01*
X494539Y-28212D01*
X494645Y-28257D01*
X494753Y-28298D01*
X494862Y-28335D01*
X494972Y-28368D01*
X495084Y-28397D01*
X495196Y-28423D01*
X495309Y-28445D01*
X495423Y-28462D01*
X495537Y-28476D01*
X495652Y-28486D01*
X495767Y-28492D01*
X495882Y-28494D01*
X499043Y-26235D02*
X499180Y-25946D01*
X499310Y-25654D01*
X499433Y-25358D01*
X499548Y-25060D01*
X499657Y-24759D01*
X499758Y-24456D01*
X499852Y-24150D01*
X499939Y-23843D01*
X500018Y-23533D01*
X500090Y-23221D01*
X500154Y-22908D01*
X500211Y-22593D01*
X500261Y-22277D01*
X500303Y-21960D01*
X500337Y-21642D01*
X500364Y-21324D01*
X500383Y-21004D01*
X500394Y-20685D01*
X500398Y-20365D01*
X499043Y-26235D02*
X499004Y-26343D01*
X498961Y-26450D01*
X498915Y-26555D01*
X498864Y-26659D01*
X498811Y-26761D01*
X498754Y-26861D01*
X498693Y-26959D01*
X498629Y-27054D01*
X498562Y-27148D01*
X498491Y-27239D01*
X498418Y-27328D01*
X498341Y-27414D01*
X498262Y-27497D01*
X498180Y-27578D01*
X498095Y-27656D01*
X498007Y-27730D01*
X497917Y-27802D01*
X497824Y-27871D01*
X497730Y-27936D01*
X497633Y-27998D01*
X497533Y-28056D01*
X497432Y-28112D01*
X497329Y-28163D01*
X497225Y-28211D01*
X497119Y-28256D01*
X497011Y-28297D01*
X496902Y-28334D01*
X496792Y-28367D01*
X496680Y-28396D01*
X496568Y-28422D01*
X496455Y-28444D01*
X496341Y-28461D01*
X496227Y-28475D01*
X496112Y-28485D01*
X495997Y-28491D01*
X495882Y-28493D01*
X492270Y-24881D02*
X499495Y-15849D01*
X506998Y-20365D02*
X507002Y-20045D01*
X507013Y-19726D01*
X507032Y-19406D01*
X507059Y-19088D01*
X507093Y-18770D01*
X507135Y-18453D01*
X507185Y-18137D01*
X507242Y-17822D01*
X507306Y-17509D01*
X507378Y-17197D01*
X507457Y-16887D01*
X507544Y-16580D01*
X507638Y-16274D01*
X507739Y-15971D01*
X507848Y-15670D01*
X507963Y-15372D01*
X508086Y-15076D01*
X508216Y-14784D01*
X508353Y-14495D01*
X508354Y-14494D02*
X508393Y-14386D01*
X508436Y-14279D01*
X508482Y-14174D01*
X508532Y-14071D01*
X508586Y-13969D01*
X508643Y-13869D01*
X508704Y-13771D01*
X508768Y-13675D01*
X508835Y-13582D01*
X508905Y-13491D01*
X508979Y-13402D01*
X509055Y-13316D01*
X509135Y-13233D01*
X509217Y-13152D01*
X509302Y-13074D01*
X509389Y-13000D01*
X509480Y-12928D01*
X509572Y-12859D01*
X509667Y-12794D01*
X509764Y-12732D01*
X509863Y-12673D01*
X509964Y-12618D01*
X510067Y-12567D01*
X510172Y-12519D01*
X510278Y-12474D01*
X510385Y-12433D01*
X510494Y-12396D01*
X510605Y-12363D01*
X510716Y-12334D01*
X510828Y-12308D01*
X510941Y-12286D01*
X511055Y-12269D01*
X511169Y-12255D01*
X511284Y-12245D01*
X511399Y-12239D01*
X511514Y-12237D01*
X511629Y-12239D01*
X511744Y-12245D01*
X511859Y-12255D01*
X511973Y-12269D01*
X512087Y-12286D01*
X512200Y-12308D01*
X512312Y-12334D01*
X512424Y-12363D01*
X512534Y-12396D01*
X512643Y-12433D01*
X512751Y-12474D01*
X512857Y-12519D01*
X512962Y-12567D01*
X513064Y-12618D01*
X513166Y-12674D01*
X513265Y-12732D01*
X513362Y-12794D01*
X513457Y-12860D01*
X513549Y-12928D01*
X513639Y-13000D01*
X513727Y-13074D01*
X513812Y-13152D01*
X513894Y-13233D01*
X513973Y-13316D01*
X514050Y-13402D01*
X514123Y-13491D01*
X514194Y-13582D01*
X514261Y-13676D01*
X514325Y-13771D01*
X514386Y-13869D01*
X514443Y-13969D01*
X514496Y-14071D01*
X514547Y-14175D01*
X514593Y-14280D01*
X514636Y-14387D01*
X514675Y-14495D01*
X514674Y-14495D02*
X514811Y-14784D01*
X514941Y-15076D01*
X515064Y-15372D01*
X515179Y-15670D01*
X515288Y-15971D01*
X515389Y-16274D01*
X515483Y-16580D01*
X515570Y-16887D01*
X515649Y-17197D01*
X515721Y-17509D01*
X515785Y-17822D01*
X515842Y-18137D01*
X515892Y-18453D01*
X515934Y-18770D01*
X515968Y-19088D01*
X515995Y-19406D01*
X516014Y-19726D01*
X516025Y-20045D01*
X516029Y-20365D01*
X506998Y-20365D02*
X507002Y-20685D01*
X507013Y-21004D01*
X507032Y-21324D01*
X507059Y-21642D01*
X507093Y-21960D01*
X507135Y-22277D01*
X507185Y-22593D01*
X507242Y-22908D01*
X507306Y-23221D01*
X507378Y-23533D01*
X507457Y-23843D01*
X507544Y-24150D01*
X507638Y-24456D01*
X507739Y-24759D01*
X507848Y-25060D01*
X507963Y-25358D01*
X508086Y-25654D01*
X508216Y-25946D01*
X508353Y-26235D01*
X508353Y-26236D02*
X508392Y-26344D01*
X508435Y-26451D01*
X508481Y-26556D01*
X508532Y-26660D01*
X508585Y-26762D01*
X508642Y-26862D01*
X508703Y-26960D01*
X508767Y-27055D01*
X508834Y-27149D01*
X508905Y-27240D01*
X508978Y-27329D01*
X509055Y-27415D01*
X509134Y-27498D01*
X509216Y-27579D01*
X509301Y-27657D01*
X509389Y-27731D01*
X509479Y-27803D01*
X509572Y-27872D01*
X509666Y-27937D01*
X509763Y-27999D01*
X509863Y-28057D01*
X509964Y-28113D01*
X510066Y-28164D01*
X510171Y-28212D01*
X510277Y-28257D01*
X510385Y-28298D01*
X510494Y-28335D01*
X510604Y-28368D01*
X510716Y-28397D01*
X510828Y-28423D01*
X510941Y-28445D01*
X511055Y-28462D01*
X511169Y-28476D01*
X511284Y-28486D01*
X511399Y-28492D01*
X511514Y-28494D01*
X514674Y-26235D02*
X514811Y-25946D01*
X514941Y-25654D01*
X515064Y-25358D01*
X515179Y-25060D01*
X515288Y-24759D01*
X515389Y-24456D01*
X515483Y-24150D01*
X515570Y-23843D01*
X515649Y-23533D01*
X515721Y-23221D01*
X515785Y-22908D01*
X515842Y-22593D01*
X515892Y-22277D01*
X515934Y-21960D01*
X515968Y-21642D01*
X515995Y-21324D01*
X516014Y-21004D01*
X516025Y-20685D01*
X516029Y-20365D01*
X514675Y-26235D02*
X514636Y-26343D01*
X514593Y-26450D01*
X514547Y-26555D01*
X514496Y-26659D01*
X514443Y-26761D01*
X514386Y-26861D01*
X514325Y-26959D01*
X514261Y-27054D01*
X514194Y-27148D01*
X514123Y-27239D01*
X514050Y-27328D01*
X513973Y-27414D01*
X513894Y-27497D01*
X513812Y-27578D01*
X513727Y-27656D01*
X513639Y-27730D01*
X513549Y-27802D01*
X513456Y-27871D01*
X513362Y-27936D01*
X513265Y-27998D01*
X513165Y-28056D01*
X513064Y-28112D01*
X512961Y-28163D01*
X512857Y-28211D01*
X512751Y-28256D01*
X512643Y-28297D01*
X512534Y-28334D01*
X512424Y-28367D01*
X512312Y-28396D01*
X512200Y-28422D01*
X512087Y-28444D01*
X511973Y-28461D01*
X511859Y-28475D01*
X511744Y-28485D01*
X511629Y-28491D01*
X511514Y-28493D01*
X507901Y-24881D02*
X515126Y-15849D01*
M02*
