G04 EAGLE Gerber RS-274X export*
G75*
%MOMM*%
%FSLAX34Y34*%
%LPD*%
%INBoard Outline*%
%IPPOS*%
%AMOC8*
5,1,8,0,0,1.08239X$1,22.5*%
G01*
%ADD10C,1.016000*%
%ADD11C,0.254000*%


D10*
X0Y0D02*
X380000Y0D01*
X590000Y0D01*
X590000Y540000D01*
X0Y540000D01*
X0Y300000D01*
X0Y0D01*
X0Y300000D02*
X23067Y300000D01*
X43387Y300000D02*
X66453Y300000D01*
X86773Y300000D02*
X109840Y300000D01*
X130160Y300000D02*
X153227Y300000D01*
X173547Y300000D02*
X196613Y300000D01*
X216933Y300000D02*
X240000Y300000D01*
X273120Y300000D01*
X293440Y300000D02*
X326560Y300000D01*
X346880Y300000D02*
X380000Y300000D01*
X405744Y300000D01*
X426064Y300000D02*
X451808Y300000D01*
X472128Y300000D02*
X497872Y300000D01*
X518192Y300000D02*
X543936Y300000D01*
X564256Y300000D02*
X590000Y300000D01*
X380000Y300000D02*
X380000Y274560D01*
X380000Y254240D02*
X380000Y228800D01*
X380000Y208480D02*
X380000Y183040D01*
X380000Y162720D02*
X380000Y137280D01*
X380000Y116960D02*
X380000Y91520D01*
X380000Y71200D02*
X380000Y45760D01*
X380000Y25440D02*
X380000Y0D01*
X240000Y516933D02*
X240000Y540000D01*
X240000Y496613D02*
X240000Y473547D01*
X240000Y453227D02*
X240000Y430160D01*
X240000Y409840D02*
X240000Y386773D01*
X240000Y366453D02*
X240000Y343387D01*
X240000Y323067D02*
X240000Y300000D01*
D11*
X0Y0D02*
X380000Y0D01*
X590000Y0D01*
X590000Y540000D01*
X0Y540000D01*
X0Y0D01*
M02*
